<mxfile host="drawio-plugin" modified="2024-07-23T21:16:18.035Z" agent="Mozilla/5.0 (Windows NT 10.0; Win64; x64) AppleWebKit/537.36 (KHTML, like Gecko) Chrome/122.0.0.0 Safari/537.36" etag="ewJT6Qb1HzuyTKqgvV_D" version="22.1.22" type="embed" pages="2">
  <diagram id="ck5gzwDrhSMdYTFF81WK" name="Arquitetura abstrata">
    <mxGraphModel dx="1680" dy="1159" grid="1" gridSize="10" guides="1" tooltips="1" connect="1" arrows="1" fold="1" page="1" pageScale="1" pageWidth="827" pageHeight="1169" math="0" shadow="0">
      <root>
        <mxCell id="0" />
        <mxCell id="1" parent="0" />
        <mxCell id="abCN6klqCJ52sBp3NVjd-12" value="" style="rounded=0;whiteSpace=wrap;html=1;" parent="1" vertex="1">
          <mxGeometry x="-570" y="360" width="570" height="380" as="geometry" />
        </mxCell>
        <mxCell id="abCN6klqCJ52sBp3NVjd-13" value="Arquitetura geral" style="text;html=1;align=center;verticalAlign=middle;whiteSpace=wrap;rounded=0;" parent="1" vertex="1">
          <mxGeometry x="-570" y="360" width="110" height="30" as="geometry" />
        </mxCell>
        <mxCell id="GghaR4lyuy14NCj-hW_X-38" value="" style="rounded=0;whiteSpace=wrap;html=1;" parent="1" vertex="1">
          <mxGeometry x="40" y="1010" width="570" height="130" as="geometry" />
        </mxCell>
        <mxCell id="GghaR4lyuy14NCj-hW_X-39" value="APP de notificacao BACEN" style="text;html=1;align=center;verticalAlign=middle;whiteSpace=wrap;rounded=0;" parent="1" vertex="1">
          <mxGeometry x="40" y="1010" width="170" height="30" as="geometry" />
        </mxCell>
        <mxCell id="GghaR4lyuy14NCj-hW_X-36" value="" style="rounded=0;whiteSpace=wrap;html=1;" parent="1" vertex="1">
          <mxGeometry x="40" y="490" width="570" height="520" as="geometry" />
        </mxCell>
        <mxCell id="GghaR4lyuy14NCj-hW_X-37" value="APP de Contas" style="text;html=1;align=center;verticalAlign=middle;whiteSpace=wrap;rounded=0;" parent="1" vertex="1">
          <mxGeometry x="40" y="490" width="100" height="30" as="geometry" />
        </mxCell>
        <mxCell id="GghaR4lyuy14NCj-hW_X-33" value="" style="rounded=0;whiteSpace=wrap;html=1;" parent="1" vertex="1">
          <mxGeometry x="40" y="360" width="570" height="130" as="geometry" />
        </mxCell>
        <mxCell id="GghaR4lyuy14NCj-hW_X-34" value="APP de cadastro" style="text;html=1;align=center;verticalAlign=middle;whiteSpace=wrap;rounded=0;" parent="1" vertex="1">
          <mxGeometry x="40" y="360" width="100" height="30" as="geometry" />
        </mxCell>
        <mxCell id="GghaR4lyuy14NCj-hW_X-24" value="" style="rounded=0;whiteSpace=wrap;html=1;" parent="1" vertex="1">
          <mxGeometry x="-570" y="1010" width="570" height="130" as="geometry" />
        </mxCell>
        <mxCell id="GghaR4lyuy14NCj-hW_X-23" value="" style="rounded=0;whiteSpace=wrap;html=1;" parent="1" vertex="1">
          <mxGeometry x="-570" y="880" width="570" height="130" as="geometry" />
        </mxCell>
        <mxCell id="GghaR4lyuy14NCj-hW_X-20" value="" style="edgeStyle=orthogonalEdgeStyle;rounded=0;orthogonalLoop=1;jettySize=auto;html=1;" parent="1" source="GghaR4lyuy14NCj-hW_X-2" target="GghaR4lyuy14NCj-hW_X-19" edge="1">
          <mxGeometry relative="1" as="geometry" />
        </mxCell>
        <mxCell id="GghaR4lyuy14NCj-hW_X-2" value="Actor" style="shape=umlActor;verticalLabelPosition=bottom;verticalAlign=top;html=1;outlineConnect=0;align=center;" parent="1" vertex="1">
          <mxGeometry x="-530" y="1045" width="30" height="60" as="geometry" />
        </mxCell>
        <mxCell id="GghaR4lyuy14NCj-hW_X-3" value="" style="edgeStyle=orthogonalEdgeStyle;rounded=0;orthogonalLoop=1;jettySize=auto;html=1;align=center;" parent="1" source="GghaR4lyuy14NCj-hW_X-19" target="GghaR4lyuy14NCj-hW_X-5" edge="1">
          <mxGeometry relative="1" as="geometry">
            <Array as="points">
              <mxPoint x="-220" y="1075" />
              <mxPoint x="-220" y="1075" />
            </Array>
          </mxGeometry>
        </mxCell>
        <mxCell id="GghaR4lyuy14NCj-hW_X-4" value="Consulta nome_Cliente" style="whiteSpace=wrap;html=1;verticalAlign=top;align=center;" parent="1" vertex="1">
          <mxGeometry x="-190" y="915" width="120" height="60" as="geometry" />
        </mxCell>
        <mxCell id="GghaR4lyuy14NCj-hW_X-5" value="Consulta &lt;br&gt;saldo" style="whiteSpace=wrap;html=1;verticalAlign=top;align=center;" parent="1" vertex="1">
          <mxGeometry x="-190" y="1045" width="120" height="60" as="geometry" />
        </mxCell>
        <mxCell id="GghaR4lyuy14NCj-hW_X-29" value="" style="edgeStyle=orthogonalEdgeStyle;rounded=0;orthogonalLoop=1;jettySize=auto;html=1;" parent="1" source="GghaR4lyuy14NCj-hW_X-7" target="GghaR4lyuy14NCj-hW_X-28" edge="1">
          <mxGeometry relative="1" as="geometry" />
        </mxCell>
        <mxCell id="GghaR4lyuy14NCj-hW_X-7" value="Actor" style="shape=umlActor;verticalLabelPosition=bottom;verticalAlign=top;html=1;outlineConnect=0;align=center;" parent="1" vertex="1">
          <mxGeometry x="70" y="525" width="30" height="60" as="geometry" />
        </mxCell>
        <mxCell id="GghaR4lyuy14NCj-hW_X-8" value="" style="edgeStyle=orthogonalEdgeStyle;rounded=0;orthogonalLoop=1;jettySize=auto;html=1;align=center;" parent="1" source="GghaR4lyuy14NCj-hW_X-28" target="GghaR4lyuy14NCj-hW_X-11" edge="1">
          <mxGeometry relative="1" as="geometry">
            <Array as="points" />
          </mxGeometry>
        </mxCell>
        <mxCell id="GghaR4lyuy14NCj-hW_X-9" value="Consulta nome_Cliente" style="whiteSpace=wrap;html=1;verticalAlign=top;align=center;" parent="1" vertex="1">
          <mxGeometry x="370" y="395" width="120" height="60" as="geometry" />
        </mxCell>
        <mxCell id="GghaR4lyuy14NCj-hW_X-11" value="Consulta&amp;nbsp;&lt;div&gt;Conta_ativa&lt;/div&gt;" style="whiteSpace=wrap;html=1;verticalAlign=top;align=center;" parent="1" vertex="1">
          <mxGeometry x="370" y="525" width="120" height="60" as="geometry" />
        </mxCell>
        <mxCell id="GghaR4lyuy14NCj-hW_X-12" value="" style="edgeStyle=orthogonalEdgeStyle;rounded=0;orthogonalLoop=1;jettySize=auto;html=1;align=center;" parent="1" source="GghaR4lyuy14NCj-hW_X-28" target="GghaR4lyuy14NCj-hW_X-15" edge="1">
          <mxGeometry relative="1" as="geometry">
            <Array as="points">
              <mxPoint x="230" y="815" />
            </Array>
          </mxGeometry>
        </mxCell>
        <mxCell id="GghaR4lyuy14NCj-hW_X-13" value="Consulta &lt;br&gt;saldo" style="whiteSpace=wrap;html=1;verticalAlign=top;align=center;" parent="1" vertex="1">
          <mxGeometry x="370" y="655" width="120" height="60" as="geometry" />
        </mxCell>
        <mxCell id="GghaR4lyuy14NCj-hW_X-14" value="" style="edgeStyle=orthogonalEdgeStyle;rounded=0;orthogonalLoop=1;jettySize=auto;html=1;align=center;" parent="1" source="GghaR4lyuy14NCj-hW_X-28" target="GghaR4lyuy14NCj-hW_X-17" edge="1">
          <mxGeometry relative="1" as="geometry">
            <Array as="points">
              <mxPoint x="230" y="945" />
            </Array>
          </mxGeometry>
        </mxCell>
        <mxCell id="GghaR4lyuy14NCj-hW_X-15" value="Valida&lt;br&gt;&amp;nbsp;se o saldo eh suficiente" style="whiteSpace=wrap;html=1;verticalAlign=top;align=center;" parent="1" vertex="1">
          <mxGeometry x="370" y="785" width="120" height="60" as="geometry" />
        </mxCell>
        <mxCell id="GghaR4lyuy14NCj-hW_X-16" value="" style="edgeStyle=orthogonalEdgeStyle;rounded=0;orthogonalLoop=1;jettySize=auto;html=1;align=center;" parent="1" source="GghaR4lyuy14NCj-hW_X-28" target="GghaR4lyuy14NCj-hW_X-18" edge="1">
          <mxGeometry relative="1" as="geometry">
            <Array as="points">
              <mxPoint x="230" y="1075" />
            </Array>
          </mxGeometry>
        </mxCell>
        <mxCell id="GghaR4lyuy14NCj-hW_X-17" value="Valida&lt;br&gt;&amp;nbsp;se ultrapassa o limite diario" style="whiteSpace=wrap;html=1;verticalAlign=top;align=center;" parent="1" vertex="1">
          <mxGeometry x="370" y="915" width="120" height="60" as="geometry" />
        </mxCell>
        <mxCell id="GghaR4lyuy14NCj-hW_X-18" value="Notificar &lt;br&gt;BACEN" style="whiteSpace=wrap;html=1;verticalAlign=top;align=center;" parent="1" vertex="1">
          <mxGeometry x="370" y="1045" width="120" height="60" as="geometry" />
        </mxCell>
        <mxCell id="GghaR4lyuy14NCj-hW_X-21" style="edgeStyle=orthogonalEdgeStyle;rounded=0;orthogonalLoop=1;jettySize=auto;html=1;" parent="1" source="GghaR4lyuy14NCj-hW_X-19" target="GghaR4lyuy14NCj-hW_X-4" edge="1">
          <mxGeometry relative="1" as="geometry">
            <Array as="points">
              <mxPoint x="-370" y="945" />
            </Array>
          </mxGeometry>
        </mxCell>
        <mxCell id="GghaR4lyuy14NCj-hW_X-19" value="Recebe&lt;br&gt;requisicao" style="whiteSpace=wrap;html=1;verticalAlign=top;" parent="1" vertex="1">
          <mxGeometry x="-430" y="1045" width="120" height="60" as="geometry" />
        </mxCell>
        <mxCell id="GghaR4lyuy14NCj-hW_X-25" value="APP de cadastro" style="text;html=1;align=center;verticalAlign=middle;whiteSpace=wrap;rounded=0;" parent="1" vertex="1">
          <mxGeometry x="-570" y="880" width="100" height="30" as="geometry" />
        </mxCell>
        <mxCell id="GghaR4lyuy14NCj-hW_X-26" value="APP de Contas" style="text;html=1;align=center;verticalAlign=middle;whiteSpace=wrap;rounded=0;" parent="1" vertex="1">
          <mxGeometry x="-570" y="1010" width="100" height="30" as="geometry" />
        </mxCell>
        <mxCell id="GghaR4lyuy14NCj-hW_X-30" style="edgeStyle=orthogonalEdgeStyle;rounded=0;orthogonalLoop=1;jettySize=auto;html=1;" parent="1" source="GghaR4lyuy14NCj-hW_X-28" target="GghaR4lyuy14NCj-hW_X-9" edge="1">
          <mxGeometry relative="1" as="geometry">
            <Array as="points">
              <mxPoint x="230" y="425" />
            </Array>
          </mxGeometry>
        </mxCell>
        <mxCell id="GghaR4lyuy14NCj-hW_X-31" style="edgeStyle=orthogonalEdgeStyle;rounded=0;orthogonalLoop=1;jettySize=auto;html=1;" parent="1" source="GghaR4lyuy14NCj-hW_X-28" target="GghaR4lyuy14NCj-hW_X-13" edge="1">
          <mxGeometry relative="1" as="geometry">
            <Array as="points">
              <mxPoint x="230" y="685" />
            </Array>
          </mxGeometry>
        </mxCell>
        <mxCell id="GghaR4lyuy14NCj-hW_X-28" value="Recebe &lt;br&gt;requisicao" style="whiteSpace=wrap;html=1;verticalAlign=top;" parent="1" vertex="1">
          <mxGeometry x="170" y="525" width="120" height="60" as="geometry" />
        </mxCell>
        <mxCell id="abCN6klqCJ52sBp3NVjd-1" style="edgeStyle=orthogonalEdgeStyle;rounded=0;orthogonalLoop=1;jettySize=auto;html=1;" parent="1" source="abCN6klqCJ52sBp3NVjd-3" target="abCN6klqCJ52sBp3NVjd-4" edge="1">
          <mxGeometry relative="1" as="geometry">
            <Array as="points">
              <mxPoint x="-290" y="430" />
            </Array>
          </mxGeometry>
        </mxCell>
        <mxCell id="abCN6klqCJ52sBp3NVjd-2" style="edgeStyle=orthogonalEdgeStyle;rounded=0;orthogonalLoop=1;jettySize=auto;html=1;" parent="1" source="abCN6klqCJ52sBp3NVjd-3" target="abCN6klqCJ52sBp3NVjd-6" edge="1">
          <mxGeometry relative="1" as="geometry">
            <Array as="points">
              <mxPoint x="-290" y="590" />
            </Array>
          </mxGeometry>
        </mxCell>
        <mxCell id="abCN6klqCJ52sBp3NVjd-3" value="API de contas" style="rounded=0;whiteSpace=wrap;html=1;" parent="1" vertex="1">
          <mxGeometry x="-350" y="480" width="120" height="60" as="geometry" />
        </mxCell>
        <mxCell id="abCN6klqCJ52sBp3NVjd-4" value="API de cadastro" style="rounded=0;whiteSpace=wrap;html=1;" parent="1" vertex="1">
          <mxGeometry x="-190" y="400" width="120" height="60" as="geometry" />
        </mxCell>
        <mxCell id="abCN6klqCJ52sBp3NVjd-5" style="edgeStyle=orthogonalEdgeStyle;rounded=0;orthogonalLoop=1;jettySize=auto;html=1;" parent="1" source="abCN6klqCJ52sBp3NVjd-6" target="abCN6klqCJ52sBp3NVjd-7" edge="1">
          <mxGeometry relative="1" as="geometry" />
        </mxCell>
        <mxCell id="abCN6klqCJ52sBp3NVjd-6" value="APP mensageria" style="rounded=0;whiteSpace=wrap;html=1;" parent="1" vertex="1">
          <mxGeometry x="-190" y="560" width="120" height="60" as="geometry" />
        </mxCell>
        <mxCell id="abCN6klqCJ52sBp3NVjd-7" value="APP de notificacao de BACEN" style="rounded=0;whiteSpace=wrap;html=1;" parent="1" vertex="1">
          <mxGeometry x="-190" y="660" width="120" height="60" as="geometry" />
        </mxCell>
        <mxCell id="abCN6klqCJ52sBp3NVjd-8" style="edgeStyle=orthogonalEdgeStyle;rounded=0;orthogonalLoop=1;jettySize=auto;html=1;" parent="1" source="abCN6klqCJ52sBp3NVjd-9" target="abCN6klqCJ52sBp3NVjd-3" edge="1">
          <mxGeometry relative="1" as="geometry" />
        </mxCell>
        <mxCell id="abCN6klqCJ52sBp3NVjd-9" value="Actor" style="shape=umlActor;verticalLabelPosition=bottom;verticalAlign=top;html=1;outlineConnect=0;" parent="1" vertex="1">
          <mxGeometry x="-510" y="480" width="30" height="60" as="geometry" />
        </mxCell>
      </root>
    </mxGraphModel>
  </diagram>
  <diagram id="atAB328HHl-sCNAqZ6J9" name="Arquitetura AWS">
    <mxGraphModel dx="853" dy="1159" grid="1" gridSize="10" guides="1" tooltips="1" connect="1" arrows="1" fold="1" page="1" pageScale="1" pageWidth="827" pageHeight="1169" math="0" shadow="0">
      <root>
        <mxCell id="0" />
        <mxCell id="1" parent="0" />
        <mxCell id="8OuLVGHwbb88sTWF8oDf-3" style="edgeStyle=orthogonalEdgeStyle;rounded=0;orthogonalLoop=1;jettySize=auto;html=1;" parent="1" source="8OuLVGHwbb88sTWF8oDf-1" target="AcP--ekUeBHdjTKaNk9V-4" edge="1">
          <mxGeometry relative="1" as="geometry">
            <mxPoint x="350" y="595.5" as="targetPoint" />
          </mxGeometry>
        </mxCell>
        <mxCell id="8OuLVGHwbb88sTWF8oDf-1" value="ECS Cadastro" style="sketch=0;outlineConnect=0;fontColor=#232F3E;gradientColor=none;strokeColor=#ffffff;fillColor=#232F3E;dashed=0;verticalLabelPosition=middle;verticalAlign=bottom;align=center;html=1;whiteSpace=wrap;fontSize=10;fontStyle=1;spacing=3;shape=mxgraph.aws4.productIcon;prIcon=mxgraph.aws4.ecs;" parent="1" vertex="1">
          <mxGeometry x="190" y="545" width="80" height="100" as="geometry" />
        </mxCell>
        <mxCell id="AcP--ekUeBHdjTKaNk9V-1" value="Amazon&#xa;Aurora" style="sketch=0;outlineConnect=0;fontColor=#232F3E;gradientColor=none;strokeColor=#ffffff;fillColor=#232F3E;dashed=0;verticalLabelPosition=middle;verticalAlign=bottom;align=center;html=1;whiteSpace=wrap;fontSize=10;fontStyle=1;spacing=3;shape=mxgraph.aws4.productIcon;prIcon=mxgraph.aws4.aurora;" parent="1" vertex="1">
          <mxGeometry x="390" y="695" width="80" height="110" as="geometry" />
        </mxCell>
        <mxCell id="AcP--ekUeBHdjTKaNk9V-2" style="edgeStyle=orthogonalEdgeStyle;rounded=0;orthogonalLoop=1;jettySize=auto;html=1;" parent="1" source="AcP--ekUeBHdjTKaNk9V-3" target="AcP--ekUeBHdjTKaNk9V-1" edge="1">
          <mxGeometry relative="1" as="geometry" />
        </mxCell>
        <mxCell id="AcP--ekUeBHdjTKaNk9V-8" style="edgeStyle=orthogonalEdgeStyle;rounded=0;orthogonalLoop=1;jettySize=auto;html=1;" parent="1" source="AcP--ekUeBHdjTKaNk9V-3" target="8OuLVGHwbb88sTWF8oDf-1" edge="1">
          <mxGeometry relative="1" as="geometry" />
        </mxCell>
        <mxCell id="AcP--ekUeBHdjTKaNk9V-13" value="REST API" style="edgeLabel;html=1;align=center;verticalAlign=middle;resizable=0;points=[];" parent="AcP--ekUeBHdjTKaNk9V-8" vertex="1" connectable="0">
          <mxGeometry x="-0.0545" relative="1" as="geometry">
            <mxPoint as="offset" />
          </mxGeometry>
        </mxCell>
        <mxCell id="AcP--ekUeBHdjTKaNk9V-9" style="edgeStyle=orthogonalEdgeStyle;rounded=0;orthogonalLoop=1;jettySize=auto;html=1;" parent="1" source="AcP--ekUeBHdjTKaNk9V-3" target="AcP--ekUeBHdjTKaNk9V-5" edge="1">
          <mxGeometry relative="1" as="geometry" />
        </mxCell>
        <mxCell id="AcP--ekUeBHdjTKaNk9V-12" value="GRPC" style="edgeLabel;html=1;align=center;verticalAlign=middle;resizable=0;points=[];" parent="AcP--ekUeBHdjTKaNk9V-9" vertex="1" connectable="0">
          <mxGeometry x="-0.2615" y="-2" relative="1" as="geometry">
            <mxPoint x="2" y="6" as="offset" />
          </mxGeometry>
        </mxCell>
        <mxCell id="AcP--ekUeBHdjTKaNk9V-3" value="ECS Contas" style="sketch=0;outlineConnect=0;fontColor=#232F3E;gradientColor=none;strokeColor=#ffffff;fillColor=#232F3E;dashed=0;verticalLabelPosition=middle;verticalAlign=bottom;align=center;html=1;whiteSpace=wrap;fontSize=10;fontStyle=1;spacing=3;shape=mxgraph.aws4.productIcon;prIcon=mxgraph.aws4.ecs;" parent="1" vertex="1">
          <mxGeometry x="190" y="700" width="80" height="100" as="geometry" />
        </mxCell>
        <mxCell id="AcP--ekUeBHdjTKaNk9V-4" value="Amazon DynamoDB" style="sketch=0;outlineConnect=0;fontColor=#232F3E;gradientColor=none;strokeColor=#ffffff;fillColor=#232F3E;dashed=0;verticalLabelPosition=middle;verticalAlign=bottom;align=center;html=1;whiteSpace=wrap;fontSize=10;fontStyle=1;spacing=3;shape=mxgraph.aws4.productIcon;prIcon=mxgraph.aws4.dynamodb;" parent="1" vertex="1">
          <mxGeometry x="390" y="540" width="80" height="110" as="geometry" />
        </mxCell>
        <mxCell id="AcP--ekUeBHdjTKaNk9V-10" style="edgeStyle=orthogonalEdgeStyle;rounded=0;orthogonalLoop=1;jettySize=auto;html=1;" parent="1" source="AcP--ekUeBHdjTKaNk9V-5" target="AcP--ekUeBHdjTKaNk9V-6" edge="1">
          <mxGeometry relative="1" as="geometry" />
        </mxCell>
        <mxCell id="AcP--ekUeBHdjTKaNk9V-14" value="GRPC" style="edgeLabel;html=1;align=center;verticalAlign=middle;resizable=0;points=[];" parent="AcP--ekUeBHdjTKaNk9V-10" vertex="1" connectable="0">
          <mxGeometry x="-0.0667" y="-3" relative="1" as="geometry">
            <mxPoint y="-3" as="offset" />
          </mxGeometry>
        </mxCell>
        <mxCell id="AcP--ekUeBHdjTKaNk9V-5" value="ECS Mensageria" style="sketch=0;outlineConnect=0;fontColor=#232F3E;gradientColor=none;strokeColor=#ffffff;fillColor=#232F3E;dashed=0;verticalLabelPosition=middle;verticalAlign=bottom;align=center;html=1;whiteSpace=wrap;fontSize=10;fontStyle=1;spacing=3;shape=mxgraph.aws4.productIcon;prIcon=mxgraph.aws4.ecs;" parent="1" vertex="1">
          <mxGeometry x="190" y="865" width="80" height="110" as="geometry" />
        </mxCell>
        <mxCell id="AcP--ekUeBHdjTKaNk9V-11" style="edgeStyle=orthogonalEdgeStyle;rounded=0;orthogonalLoop=1;jettySize=auto;html=1;" parent="1" source="AcP--ekUeBHdjTKaNk9V-6" target="AcP--ekUeBHdjTKaNk9V-7" edge="1">
          <mxGeometry relative="1" as="geometry" />
        </mxCell>
        <mxCell id="AcP--ekUeBHdjTKaNk9V-15" value="REST API" style="edgeLabel;html=1;align=center;verticalAlign=middle;resizable=0;points=[];" parent="AcP--ekUeBHdjTKaNk9V-11" vertex="1" connectable="0">
          <mxGeometry x="-0.0638" y="-4" relative="1" as="geometry">
            <mxPoint y="-4" as="offset" />
          </mxGeometry>
        </mxCell>
        <mxCell id="AcP--ekUeBHdjTKaNk9V-6" value="ECS Notifica BACEN" style="sketch=0;outlineConnect=0;fontColor=#232F3E;gradientColor=none;strokeColor=#ffffff;fillColor=#232F3E;dashed=0;verticalLabelPosition=middle;verticalAlign=bottom;align=center;html=1;whiteSpace=wrap;fontSize=10;fontStyle=1;spacing=3;shape=mxgraph.aws4.productIcon;prIcon=mxgraph.aws4.ecs;" parent="1" vertex="1">
          <mxGeometry x="390" y="865" width="80" height="110" as="geometry" />
        </mxCell>
        <mxCell id="AcP--ekUeBHdjTKaNk9V-7" value="ECS BACEN" style="sketch=0;outlineConnect=0;fontColor=#232F3E;gradientColor=none;strokeColor=#ffffff;fillColor=#232F3E;dashed=0;verticalLabelPosition=middle;verticalAlign=bottom;align=center;html=1;whiteSpace=wrap;fontSize=10;fontStyle=1;spacing=3;shape=mxgraph.aws4.productIcon;prIcon=mxgraph.aws4.ecs;" parent="1" vertex="1">
          <mxGeometry x="580" y="870" width="80" height="100" as="geometry" />
        </mxCell>
        <mxCell id="AcP--ekUeBHdjTKaNk9V-17" style="edgeStyle=orthogonalEdgeStyle;rounded=0;orthogonalLoop=1;jettySize=auto;html=1;" parent="1" source="AcP--ekUeBHdjTKaNk9V-16" target="AcP--ekUeBHdjTKaNk9V-3" edge="1">
          <mxGeometry relative="1" as="geometry" />
        </mxCell>
        <mxCell id="AcP--ekUeBHdjTKaNk9V-16" value="Actor" style="shape=umlActor;verticalLabelPosition=bottom;verticalAlign=top;html=1;outlineConnect=0;" parent="1" vertex="1">
          <mxGeometry x="60" y="720" width="30" height="60" as="geometry" />
        </mxCell>
        <mxCell id="K3JCWGEV4drO9uTMXzan-7" value="" style="shape=image;verticalLabelPosition=bottom;labelBackgroundColor=default;verticalAlign=top;aspect=fixed;imageAspect=0;image=data:image/png,iVBORw0KGgoAAAANSUhEUgAAAN8AAABfCAYAAABoSRL0AAAAAXNSR0IArs4c6QAAAARnQU1BAACxjwv8YQUAAAAJcEhZcwAADsMAAA7DAcdvqGQAABlzSURBVHhe7Z0JeJzlccdHlna1knZ1+L5vWzYYY8wdyNlACJQ0JNDw0EBIIUAglBRMgMalgRBu4oQ0YEjipNA0QHiSEqCUuyUFDLGNbYxvfJ+yrHO10mq1cuf3rhQUWbJ2te+35/fnWWStZe33zTf/eWfmnZm34GC46ZC4cOEi5RjS9dWFCxcphks+Fy7SBJd8LlykCS75XLhIE1zyuXCRJrjkc+EiTXDJ58JFmuCSz4WLNMElnwsXaYJLPhcu0gSXfC5cpAku+Vy4SBNc8rlwkSa4XQ0ZgE59AtFDh6RDv/JnHshHD4U/Feh/ain1f1jLIv1fYUHsPRfZC5d8KUZUpR1RhrXqq02/4XUg3CkftnTItlBUatqi0hLtlLC+H+l6MkVKtJLCAgkUFci4kkKZ4S+SKWVFUuEZYt4v05dXmQk5sx3ccrcxinSKGqSYUeJ73te3DIwx0hdGCGPk0a8qDvO9iiMr4JIvBYBwzR2dUtfeKfuUXBBtbVNE1jV3yKZgh5Ivan4mEfiViNOUgHMrvHJClUeqlZBjS4pkePEQKc4iFnLbGBrkE1SWNesLOdWqQapRuezXV137IWmMRKU1KtIOA/VfQTIMT7kybph3iIz2DZExvkIZVVwoI1QGvI9xKs1gJrrkcwjdSrVXyQbBlte3y4qGdtlgyNbZpUR2wMrIinhClVc+PaJYjqv0yMTSIqOcmah6rGYQrUblsFcZtTXUIRuaI7JZZbNLv4d8jbrsR/TnEgFGp9JbIGOVhLMCHjVMHjmm3CuTSguNUfLo32eSPFzyOQCUB2Va29Qhb9WF5Y+1YTmo76UCEO7UYcVy1iifnKQr4nS/x7yXbqBkjepHbmuJypaWiDFCqxojslpfuNpOKCEOwET1Bj6pBgnDNKe8SKaWeYzXkAlwyWcRDapcK3SFe/Ngu/xvbZtxK4npUg1UC7frRCXf2aNLdDX0yXhdGdPhjbLA71FyrdRV/72GiCxn9VfDhFuZGnMUk0elygOP4BPDfYaM1YGitLvnLvksoFUJ9n5ju7xUE5aX97cZNzNs0a0cLNCtMRoDfVZXwfPHlajyeVO2CmJzdrV2yFI1RG/oyv+OGqVd6l52J5HSAe6cOPB4XQU/rzL5q5E+466nyzFwyZcEENy2lg55bm+rEq/NuFDEMpkGkg7HavxzwfhS+esxJSZB4SRwI187EJZXD7TJMiXdbo3j0uAA9Au4NlZJd7q653+rMjllqFd8aWCgS75BgtVu6cGw/HpnSN3MsNRqTJcBi12/YBUc7yuUCyeUyqWTymSk/tm2uuFik1R6aldI41wlnZKQbZVMhU+Fgvt50cQyuUA9A1bFVMIl3yBA8uT3u0PyH0q8DcR1mcy6Xhiuq945uvrdODNgUvO2wGr3+z2t8vTuVlmvMV0ok5a6IwADhBzOGeOTf5wRMFsVqYJLvgSAoHaFovLwlmajaJAwS3TsL1BWVKAxT4k8MLcy6cwfuwHsW/5kc7O8qK43md5slAlyOHVosdyvMiE5lQq45IsTCGmrKtkd65tMUiVbLHt/INNHEuaeYyoHnYQhvF1eF5a7NzbLuxrbpSOzaxMeFcMJVcWyaG6FzAh4ut51Di754gTW/er36uU9jWmyXMf+DJTtW9P9ckt1RcIZPzztpUq861c3GNlkked9RCCHeRVe+dn8KplUVtT1rjNIbYSZpdgW6pC/X1ZnMne5QjxA2n/xlpA8v7c1oU1ufvZ/DrTJxX+qM9squUI8wPNd1dguN7zfIPs1jnUSLvmOAHSKkqeL3q2TNU2R2Js5hrZop9yurvT6OO8P5XxdY7urVzaYooJcBO7023XtRi71Dt6jS75+APG2KvGuW1VvKjJyFdwn+3A//rDZlH8dCdRkvlkblivV/aYYPJdB/PqKxvaPb28x20pOwCVfP9ihrubt6xuNq5nroMibfbkXVdn6UzNcy3d0NbhxTYPJaOYDyGb/bnervHUw7Ihr7ZKvD1B3+NCHQXm1JmxckHxAra5kT+8OmVWwNxABe3d3b2g2Gd98gblv9X6e2Nm3XJKFS75eaFG2oYTP7WvN+u2ERICRoTzumT2hw6pS8AIe3Bw01St5JBIDZEH8h1dgeyvF8a0GnuOB9qjp28qE+Jyu59kBT5+1fMQ0L+1rk7s2NhtL74Sr0RNcQkAvaLSvUMb4Yk2hfv2eUjBcwabIIdNMSlcAqzEP38lL4nroB7x7TqXplAc0ueIF/GJbS0raongq9N2VFxWYEjgqcujQUPGYLghCzYZI1PQC8grq9TltEJDL50b55Luzyk2foC04Tj4Kj5/YFZJ31XrYbCAdLKb5i+T2oyoOq+Pjyuguv3N9kykKdvJa2eCeqso9v8pjDAGKTt0lDZ+Qj4dNVwQNpXS+72ztkE3NHbJar29VQ8QYM6cuj+74hapk544tUaU+JM/ubZN7NzSZLQUnnx5jIOgwmF1eJDP1GU0qpTO/UEZ6C6XCW2DqMCEfBqhejQDbANvVoJMMo1WJrLSTZX50yt9cXS5fGV9qRnbYgKPkIzB/bHuLPLK1xYwESDcYPXDn0eXytcll5mH3BGlzLPwStfBOpZep5IJ0Z432mYr6aiXeSCXcQA+TEq6gKh3uH31xL6gL9NbB9gGzk/GC62IFZjbMKcO88qWxpTKnwmM+6y6N82gJcqpAmnuHbPQcMg5juv6ZWkuuZyAdx0DiEWwIRuQNNZjPqteyXWXkxKVyLV9Wg3STErDbK0gWjpEPC/XC/la5a32zbNHVzzGGxwm49oXRJbLo2MrDVj3clhf1Wu/Ua8XdtH2t6FCluk9njPTJefoA6avDxRyMAWVFJOnxnK5IGDZc0kSvl4/FlZugK8usQJGuNh5DPMYv8BpWXCjNSux/VWP0S/0MWyTvCVZ3Vrdzx8T66qr9HqlSmfB+osA40VWyrD4sv9oeMgUATiTKJpcWyg+OrpAzR5UM6tn1hmPkQ0lWN7arQCISHcAUofwDPd5OlfBAayefwu/qSxvL1JKerSsOStYbGIf7NM77zz2t1t1NnhHzVK6ZWmaaWlFuYppkwBXier1S02bcZOaeDHTVmJsJqjzzlfjzKnWFKfOYFWaoKnyFvvyq9d2Xxe96SY3RHWqM1qmra1ciYuLtz2hs+fVJZWYAFNdgQ5lZnXmWxKdL1GhASpsgXLh+RkC+MaXMSvuRY+TjlyKMWIw+8EcM9BPxCLL7R/r6UVxOKtd7P2PIxl7OD1SJWUVsgs9ilVs4K2AKdukmsAk2f/+gBuOf1zYelgzho4ZpvIQbN09dyJOGek08x+pCXAkB+rscyHzfxiZ5clerdXeTMYdfU9JdrgpMjMfwJ5vganFF79Y49fEdLVaTMVwp7Vi3akxM7iBZOJ5wyXRQFHyXEu+Zva3WYwVWmR/PqzQxjW0l6wZJht/uDMlNHzSqgTqkn+Uxndkn6gtXbpSP2Z6xbGGRWu6BroKM7zNK6O+ttW+MSJosnF0uF00oNW6vMxKJ4WB7VK5b2WDiY5vgWdKKxZCqZK8/r8lHNg9X84bVjSalbhPH6Grz25OHyXCNn5xUMkB8w2oVW+1icRMrPa5cop9NUufeDc0mQ21TMbi2hbMr5Cp1v3snu5zCjlBUvry01riitoD39OCxVWYF7M9ziBfJO65ZjN2tnRrbhK0Tj0QCLSkjUkA8gBKQDKAJlN48MogQMNHPZuWnM/+PB8NWicd1XDrJL1enkHiAvdNvT/db2xoAzOhhMBQzWZNF3CsfCRSqP3BLsgU4NhUexogfLnxkx3i/b62sl/1t9siHZVx8XJV8zlJGLJVga+jhLUFZtKnZGvkQAaP6lhw/NOUzUsBuJcoVK+plaZ29Gt0rNF69fka5mYydDOIiH2VWz6p7dr8+FNLc2UI/VgIe+vwq72GrAOnzxapoD+g92QrKWYG+OdUvC2aWGxJmExAB5WV0cbyvX22BjCpewMlDi9NijEhK/UZj4lvWNFjbfviCupy3HVUhE9XbSAYDUpds1zt1YXl0azAj9usSwVEBj0lj9/XMsfIMt7VFPHBUeWw8Hxm9RMFlsDeKC5yOF9lSajeZsm0LiOH8cWzYe9PmBeCGnzzUK5MtbYwDZGVjS2rAlY+zBn6oqwOzKbs/D7c9UVkm8vOxsCCxufr8bM9wgoXnmmkBUw7UexWCcLSJXLKsTposbSATV9xSHZCvTy4z1RmJYnMwIu/WxUrH0gFWiP+rDZsiYlsgM/jo/KGmWiaRZ2kblKKx9fDYjlDXO8lhjhrZxbqaUxqYDAYkHxf+/D4GBn2kpKwlRtlj3w4ISIHlS+QBmH+TwL/g9/e0rli8U9TVYS+p92/BjX5EXU6GIdkCm/dkwTgTIFErj4H7/romeVYNXK50UmDvrpsekKun+c2o9nSCXMW/72iRhWsbrWwnUSJIOENGOxnEFfORY+lZT5+gbim6/0X8d17QcxmzDEqRrlpRJ68fCHe9kzwu0xXvBuY+aoyTCNjuWLItJPdubMqpJlWM3qK5lSbZ4tQeZ7zgtKMX9rbJtRrP2pgoPtY3RB4/cZjMq/R2vTM4xGWSYisX+0axF8RI7BX7HX3/Xd8vp4DoG1XJ6WCwBdzak3TFI75MFNtDUVMDa8v9zRQwnp44K93EA3hQVBeVFtpZgeFv8hSOk3y5BFbxna1RabB4YgfHUE0oLUq4ZpMreLWmzdRP2srEZQIQA2fj0YuXCeAqiMmT3BmwjrwjH+sL2yWJHrx4JJByrhpEXLNdr+OVmnDOzUQh4cS5gNSQZgJs2zVW80Tj+r4Q9ya7kyDhwLwUWx0FlFiRXqZDvDf4jHs2NMmPNge73kkel0wqkxs13qP5M15wq/QOLtrcbBpmcwlkA++ZU2l6AzMB5LBeO6Ax30qmriVv6ChQX3LCUHOfySDt5KPd6JsrG+SN2jZrhc20ztw6q8IE+71Bpc4NqxrkN7vspJ0xgNdO98u10wIJxXzUUN66tlFe2OdM71k6wciFW2fbHbmQDNirpiP/H1bVWxkDSDz70HFVSd9f2v0ClI8UOxaJzUsbL9L1/YkYb7POYnKDlDrn3yXiYXFtnNDKhnauEQ/QOGwruWEDLHZ4V7YGIGFkbdSLplVCIdW8B7cErbmb3ShXJkCIvgDtGLpjC0P0IdCqk8ieJKVtbx9slx2tueVudsOrouhH/GkBz9vmDBo6VWwcKZ1WtxN3gAE4IdXB3msVfKSIu/fFYbzYG+sJvuX9bkqxx0RfW1+n77Dhev7SWnOqjg1gARfM9MsVU/xxV7a8rvHHbeuarNZQZhLo1/tOdbkZU5EJWKc6dvmyOjOD0wboZr96qt80JieDjEi4pBJYwQveOWimqdkA/KaS45o4Kzn4/EWbgvKTD+0VdGcaOHqaCWh9jexINTDwz+9rlctX1BsjnSwwJ/fNrZSvqIGhOTgZZI5jniLgHtp0iSAQ81TiDeRxf3LttKPeYEarE0OXBgOm0lEeaYN4gHhvdPEQK32J+Uc+lVmpBX+9J/aossVTocLzp3eQOZy5DMb3MdDWciifMPj8jWrsGCtoCwzDYpivDQOed+TDYNlu6tzc0mGytQPpGs9rpG+IKcil15BBrFjRpF76O2wE/zbB3NNNwYi09CjGTwda1MV/elfIZMBtADGzvcCEAhvIu5iPzCrDgR7Zam+THS7fNrtCvjqxbMAJZewzUk62tjkSc1WTlD5F4szWtLF5bBOfH+2T76lMmPKVDtOAWF/QWO9ai+cIUsPLyPiL9TkP9ijtnsg78hGAL1bi3aYEtHnjnxpRbAaqMoU6VcqGIfn51ha5Z2OTlWp9mxipq8PdcyoMCW3OUIkXDD+GeDQI28LR5R65Q5/xx4cnP7kM5GHMV2AKoW0mXcCKhoj8qb7d2kbuQOBTOFPisR0tZvsk01DbHpU/dBVPpBp85gMbm83xzraA/TixymsyuLZUJy8TLlM0aO7rlKJkwHj1pzS+oGibQN9J8OtXqUWnIZiDaDKPerFkB/2SpPkppkgVqJNlABQZTpt2kEnj1AvbivdA/iVc9DXCN8SsfjbBc15eH5GfbwtKk8UKmr5AYcJDSrzlutJa7IyyDrYbGN2OR+C0QQIcYMlALAYmEVvbAgabyeMMQR4gpE8IeUc+QOkZ4x5sgwfOEN5HlRhOuJ/sVX3QGDEzdTisscXSZ6Bc7F8Npi1qIDB0i/MknKzmwdR90BQxozie3t1qBkLZxAiVzWnDvElPK+uNvCXfJzRodiIPwJl6P1NrD0Fs1qzyq96uC8udG5rkv5V4NhMsZO44PcmJFiCu+z2Nva5fXS9vWh7GCzB4z2ts+d01jcbFZb/V5megI4yL4CQl24mjvCQfhdDVgSIzCMcJdA+fvWx5nXGFklEG/i3uG4mVBe83yKsaR9lMsKBO1GBSq/hxC+cP9AUWaA72vHJFnTyxs8WKS8ivIN69fW2T3KLEwzA5MXyK8ATDxBRy28hL8qFgTBv+2NDD+/1sAUXANTxvaa0s0ThwMN3q7ANyDNhV79XLrR80ysbmDrNVYhMknm6eWS6T1BCdYHm+ZU9w2XvbOuU77zfKZcvqzOjG3gXy8YDfg0Ej5r142UH5xfagaRdyIqeDbE4b7pUzR/kc6dLIu32+buAS0kd4w+oGjRGcFQEPjlX2i2pBKTqeorEDLowZFtX1M1wBr45OehIPmQ3i32n8uLoh4uhxx1j1h4+rMvNnOFqLgu+ffhi06rr1BvdMMQJxNx0Qn9QQgFOLONylt453yyUc7TRHPz+1OyT/tbdNdinhHBSLuQ7mjTKBjWSLE8hb8gHq/v5pTYPVEYIDgVIwWp6mKxlH69fuQylZKWtUobaEokbJbPc49gVcKU5S6j5rDq+NgU43qnvLqUepAErO0dhzVcGZME5Sg+4QUhskTqgR5Tkxyh652Jy90x+4JkZALpgZkEsnlR1mEGwhr8lHRpK9OQ6XzLQKEadBfetP51WZCpSegHT3b2wy6fo8E8mfQRnZJRPLzFmCTtbN5mXM1w18ejZOP6VujxM+faaCsyQunVQqnx35l8QDHKvFDBZbh/5nG9jHIxNOf6bTBet5TT5AgoE4bLzlTfdMBbHm2Xq/35jiNwXhvUHcddLQYjlXf4Y4LJ8A1zDGNAL3NfnONvKefFi304YVG2ufbcd6JQqI94nhXrluul9GHaFMig13DNKpqoiJDgLOVnCXx2vc+S9HxYrjU4G8Jx8YU1IoF4wrMQer5KqycVuc1c7IC5I9R7pN/mp2oMic8MTP5qZEPgL3R9E0p0zNr0jdrFGXfAqET4PrxRNLZZb/yIqZjWBBP1UNC3EM9YnxGBhWyU+PKJavqkz6OukpV0Cs/zH1fG6qLpfTaRVK4Y265OsCCsmQXVLLVDXkirIx2vwUVS4G++JeJ9LNQcz3pXGlZgVMZCBwtgCj9JkRPlkwI6AE9Jp4N5VwydcDjP77m7ElcsXUMjP6PdsJyOpFky+j7k5X4g2m+5pKoEsnl8mFE0pzKgGDLDAsN84MmJpWZJVq5PU+X39oaO+UJ3aF5EebmzNuPEO8IHl05kifXDnVb04MSla5KOH61fYWeWRLi/WugVRjlBoUju+mumaa32O1TSgRuOTrB/TkvVwTloVrGqUmnF2TpWkN+juN1TiimkFNts7Ioz71STVKt69rSkkFjm0gBQrqr5ril7NG+2SYtzCt8b1LviMABWPG5oLVDbIhmPnj/nAK2RzHzTx7jM+40bZ1i2Lv12raTFUQB3tmC/AEzsATUOLNrYx5AmnknYFLvgGAgWc0wV3rm+TJ3aGMHXbLrt0Xx2oMUx0wRdyDCO/iBjLZGIzIbUpAvINMViAMEoUU7G2eM7rEHOKSbtJ1wyVfnKAHjTrQH24Kyu7WjowgIUpEvMJqd3N1ualKSaUb1Rw5JP+2IyiLNQ7cr655JnmiGB/c7/PUIH17hj8lFSuJwiVfAoBwjEX45bagOe+NmZn016VagCgW3fhT/UVy4fhSuWBcadKHdgwWFF8zpo+DPl/enz6ZAAwP5yd0V+gwX7OaaWMpNEiJwCXfIMAquKI+Ir/e0SJLNSakDy4U7XR0NYRw7NFhzTkZlVUON4phUJmgW8SCDEp6YmfIfCVL7LRMQDfh2AYZr7I4Y5TPGCPOyE+lFzAYuORLAvTgMcKPc9VJzNCOw7xKxjzYECqEQ6mw5GPUbeIYYiruT6ryZlTs0hPdMmHcBdPVkAlE5HQmW4qGXDjvHUNEF8ZslQsDjqhUGZ7mDGYicMlnAWx7HdCYZ2Vjuyyta5cNzRwUwkk9h4zS0YmOe8Yq0HnoI2KiIwzxxWHkaD8ycLT7xBSrwDR0MiX5uEqPOSNguBIuW2pPud86NUQ0wSITpq4dUJe0Xt9jcgC9lIw95AzGvmJFCEbFCTEtM3dws8lYxghXaLYM5lV4jXxGKQHTsUmeLFzyOQAO5tgcjMjO1k7Z3xbV72MKx6oQ1pdRNpRLv3hVqai2QLHo4MZyc/gJXeYMNkqkHCyTwRAoOtEZerSnrdPEhvWRqASVgciFDnWME7fbbYR4BVQm5SqbYcWFZnN8ssqF7GUudKC45EsBSECw+qm+qYJ9ZOkx1lh3ciW0NmWj9R4MuH32UJlkjVwwSMTRrJbIQ22OieOQSbESUDlnPIRcg0s+Fy7ShPTkp124cOGSz4WLdMElnwsXaYJLPhcu0gKR/wdcLWNka78POAAAAABJRU5ErkJggg==;" parent="1" vertex="1">
          <mxGeometry x="206.51999999999998" y="875" width="46.95" height="20" as="geometry" />
        </mxCell>
        <mxCell id="K3JCWGEV4drO9uTMXzan-8" value="" style="shape=image;verticalLabelPosition=bottom;labelBackgroundColor=default;verticalAlign=top;aspect=fixed;imageAspect=0;image=data:image/png,iVBORw0KGgoAAAANSUhEUgAAAIcAAAA5CAYAAAAcJzgPAAAAAXNSR0IArs4c6QAAAARnQU1BAACxjwv8YQUAAAAJcEhZcwAADsMAAA7DAcdvqGQAABePSURBVHhe7ZwJeFXVtcdXEjIPkMQQAiQQAhgEIlgGGUXRZx3Qilpn0fbVaq1jqyKtqNTxtVXbonWoPKdnbZ1xqrOAWJkxzPMUhiBJyDwnb//Wuedyc7nn5N4wGPvln+98N/ecs8f132uvtfbeN6yioqJZOtCBAAj3fHagAwehgxzfASLCO3n+a9/oIMdRRlREtOyp2CYNTQ3tniQd5DiKgBivr3lCZsw/W6Z+caqSpD0TpIMcRxGNzY3yRcHzkhzV23R8hHyz+0uJCIvwPG1/6CDHUQREGJp2tlQ2Fkl1Y7Hkpg1TwrRXdLiyRxlMIxuLV0hy7DGSGpshjcb2aK84rOQ43PPn4eg43zq55cd7gZ4Hmx4EysNO73sf2wON4Xsv0HsglPJ94ZbOqSx/HBZyUBgqc2f5ZtldvtVz99AQHRErOSl5EhcZL3WNtZ67wQMBVNVXSklNoVTUlUlCVJIkx6Sb/BKMYBq8HUPdaxtq1DjsmZSj90BURIxJXyE7yjZIXUO1xEd11ufk61+fQHnYAti2f51Ed4qRbgm9tEzucy85Nk2SolO894qqd+v7tjaxCUSe5E0eaXE9ApZvg3yQQ0nNt1JQulHv+dfbLqukep/0TRnsSpBDJgeF0YAX8mfIrqo1xsyK9Dw5NDRJo3QKi5Yzsq+V03IuDpog1IfOnL3uaVm4521paD6QDiOwT+fhMj5rsgxOH60dg0t599wfSU1TmXSPGyB3jnlOSfXamj/L0sL3tB6k4zM6PFHGZ14kp+dcruXYHUse98ydLNVN+yUrYYjcNuop+feOD+TtDX9R+6KusVwuzX1ITup9rryy8hH5vOAZI6xEmXri36VHYh9ZvOszeSb/l5rXVQP/KKMyz5TPt7whH255RtOHeUzDuIhkOT37ZzK+9zkHCRXhMzhfX/MX2Vj6tdYZUG/SndHnWi1/c8kqeXjBBfpsTPcr5Mq8O53JNm3atHs8/4cMmxgPfX2J1DfWmc5LkE7h0YfligyPNaMgUlYWfybVdfUyuOuooIw36vHwv6+SLaVLlVwgPKyT5sf30rpCWVT4jmwqWiOjM8+StfuWGBK9I/ERKVJct11yU8bI40tulu1l+aYeMSZNlKaLCo8zOTXLxv0LZenuL+T49AkSa7RaeFi4rN+3VBbsecvkkWry3yMlVSXy/taZmi46PN6kjZfqhioZ2eOHMit/qiR0StN68X6/1CHy9rqnVEtFRyQZYtfJJmOTfLT9SU0fGRajZVP/JtP+FUWfSFFlkZyQMcHbHxADgj2+7DqTT6mWSR+GmbpR/2bzl1/0senHOik1GqOgfL0hTIoUVm2WidmXSXNzk+bjj0P2Vp5edofEhHdWQR4J0IG4f5tLVisZ3UAnfbDxeSmv+1Y7tNmMmxHdzlXtMzjtFCPICKlvqjYdHisbSr/yjhh7lFHW8yvuNh28XzVOSkx36Zc80kxHGVLVWKLvxBgBlpn8n1xym363YWtMyl1S+L7mBWoay6SsfqeM7jlJv7v1E8+2GVKi8ez8qDN5NDbX6//ku6jwLVlXtFz7g4v/n191pz4jj7qmKn2/T+cfaP3jIo18TH7zd/7TkPgdrSN5tSazNpMDQSws+EhKa3ebQtyFdqiAfP9Y/T+mHPeYACNp0e53dcTRoVcOmiEXD7pVp6Ur86bJ/Se/I1cNftBoh7EyZeCD2gZ/QIy4yC5y87BndYq55oT7zefz+j02MsmUYWwE06mFVRtl7tbZAdtuCygxKlUuHzhDHpowR4ZmnKRpWwPagfQ/zfu93DdhttZ52phXpEdCrgocxIQnyYKdH3j74+VV92sfAdrNgLh3/Fty3bCHTf3vk+njXpHz+t2uhK+uL9P3gkGbycG8/Oq6h3UkHWkggN1V63QeDyRQG8zD9gjT7x5hQJq6xhp9jq1Bh1nCCjxN3TziCenV5VjVLKTj4jv3G5vr9B2mii92vGz+O9hkow79upwo08a+qOXEQyo/G8EJ2D7/PeT3Wk9AOozUa054SL8DbJBN+5fqf7jFxbXbtY8oNy/tdB0QnYxGsepeq3lgb1ySO92QttLKJAi0iRxY8qjvtgBmczFCQgGj5Y31jygpnYCKZdSTN6R9bsWd8s76v6l1Dqm46Ci7w/zBaD+zzy/MNJJ20HO+J8d0lZOzrtD3ICBC2VtVIFGdYj1vHcCU4+/Sz0DlOIF6J0f3VC8CwdogD7y2AanjlQCUbWmAZllftESnSVDbVCFn97/avBOgbSY/DN3UmKyg+z5kciCAvVU7ZE7Bizp3hQrU+nUnzNR5PBSC0CF0zKdbXlFyOmFS3+vUawAQ5PPtL8p98y+U3827VN5f/4JUmk510j6o3YHpw005getFpw9MG+X1gJjHcQl9AXFOzrxChRkKMQCGY3J0N+904Y+0uO7aBwcQJrvKN+o0RF+mxWRL17ieLuU2y5D0iS08ODeETg5T8TfXPK6eiRtohK/w6TTcqSHdxsuxxkK/Mm+6qlAbvNuy4QcDMn687W/Gj98b0DilU4Z1P0Um952qBiRlRhhrHVeuvK5IPtk+S6bPO1sXvwKlx4BNiEx2FWpCdMtptLq+3POfBTo+JzXPkWCHF83GC6own2Fa92Nis6zbDqBOSVGWpxQMQiKHbRnjXrpZukwbWMpoB1vgTWbUpcQadW0+UetxkYl6H3APYw+1iUDdNAqkfHX1n0z5gY1g8j45+zy5d9xs9VK6xmV7iFKphioWPVrv+W8eCJhHRX1JQOLYqKhtadD556EEizrydpiFMOP+xpvPZrVD9tfusW47gIFdWWdp1WAQsub4p/EaYsO7eL4dDASBpY2ljLVvWdnOIxEi0MF3jHpOfjJkukwd/ZLHKwisRSDlCuOzE8xxEiIEwQg8pc+Fctuop5UoWOu2t4EmWfbtuzo9+oJpYlPRCu3EQOA+0U1IBhqlXlLi0vX/7wpd47O0r5h2MdqJjrphVdF8044ozzd3BE0O5ukvt70nRTXbvd6AP4jm4fINTh/lMajCJDNpgKm8ZeEHAvNsamym0SQJmgbLHK/AnkcDwcm1hSxc1JVPpgfyhCgn9T5HCWiPdIiwq2yL/m8DD+RfW2YpufyJx3fuE7WEHNSNehAWJ7z+3aBZ+qcM9doQ1OuzLa8GtMm4t3zPPNlRke/tg9YQNDnwEt7e+Iij64rGuKDfb6RP8kDtRATE6P5611uuhisV3Vmxyrip72saBMqaww3DZ3oNS3+Qxt+1RXgrCr+S2z6dKH9dPNXjocTofSWKESZGYnSneBUsYeVYn6kNQHoCaE8umaoheNKTP598f2Lxr72jFIEQSg+2o48EaNNxXUeoJ0eb6GemzI83/d1Tb/uK0b7Be0NrBougyEHmbq4rHda384nqSzNSEQa2yaOLrza6I8zzljMg3Mtr7zGNwhOxCMKawxm9rlcbJBDokDfXP+Z1bdEic7e/of9vLl2iHsqfF96s2o5YwOq9C833WzTIZWu+zKR++umPHeUr5bdzzpJZy2cYV/hZeSH/Af2+s2KtKSfStLdBBTEx+2L9/7vGFYPu8Q4khP/e5ply99wL5ZWVj6rx/eD8KfJM/q3eEDxw0sq+aJUcCLo11xWv4+x+P9OO4n1G7eNLr1PbxGkK8geG4uzNj6rqIw+0z6k5jMzAhq89ei3X1lrBPD1nij6DrJAHIaPt/rr0l/Js/m36HcON6W9Sn5t0KvMFRJyUc5OG2Cl3TdFcdYVXfPuZtp17vMM0iWZjpdQGmigYONlSoQLDFzCQCJid0+cWbZdOd2awEQchjE/IvLhml2l1hGQmDpJBaazJWHWIj+yig8oJrZPDqE031xVC5CSN0OmEilLYyyse1veDJYYNyPR/q2ZoPgChj8+82FF7IDDLtbWMMIJH9530npya9RMtG9LiJdkgSESnXpp7j4bU/Ud9fXO1xjluO/EFSYnp4U1PZ+KB0fnHJo+Su8a+6l2C5+rZua/UNpbqOwSk2Bpgt8EX9E1W4mDNp7Jhr2R2tjRXT6PBWH+paSqVnOQhes8fkD8jIVvTkR5v0BYs2vq0nEvkmrzHNGTPc7wzSE79a5vKZVzPS+X64X+Q1fvm6QChH3okDtD0TnBdsmcEo5JnLv25juxAsEcby8jAXqX1f5+Ow4thjqTjCEbdPe+cg+ZA3sOzGNvrLP3ulJ8NBMfiEiFxtA2wNQlp2V9S77mfEpch2V0G6HPb6GS6Qasw2uhUexmd9HgmhSaPGmNvJEZ3lqwu/Y1rnKnC8AX5UNbGopWS122Ud59GILC8/82euVoX4j12PbAJGprqrbC+Q1q7vhXGHT2+23gNkXOvrLZYV3JJqzZc+SZvuxOiunj3xTBFogkZVPQz6z5u5bVKjge+vEIDSE5aAEMUD4W1B5jsWwFfBEsOhI36u3HEo15hT/38dMcpDSDUW4b9r9bBt6HU3x/+zwORw3djjj+cOtJ+1+m5LwK9G2x6//cgG/YQWo8BNDzjbBnabYK2AfLwHOJ+suVlWV30hbaTqQd5zjjpTc3DCY7TCpVYtnuOfFuzpdXpwe5MXNeCsg2GJO5LwW4gLbbBAS0QI8nR3bVBTnBybamT/xUKQknf2nNfBHo32PSB3mOqsT0WbIzHFv9Ujz7c/tlE/eT7hpIFSgymUozXa4b+wUs0JziTw3T0ol0ftRomx7eGoRaaNcIISQ4F2AZoFgvNOo8SD3ECqpRdaK0FgAKBRTOCWXQsO7aI3AYjpPYCjOI7Rr6m2hahY2MgE+SGd8InFxoZzcgeFbSjv5YNBFeDlHCsvUXNCb4GnxvYjYV6Q5Bog5JqZ0FiWUdH2NNImDGsnINoNqhnVX15q6PBF3QORuzw9B+pgXZBv+m6Ivt9Am1A0DeOeExmjHtXLsr9je7nwGAlOs3FsgRLCUy9RK0PaHp3ONocCJA4ASrebZqAjVSKKCSG3qzlv1MXMFAajFc8CTbXsr/Snvt8Yd9jkwsNIE98dlwzt+mNetw15vU2bfe3DVi0pT2dfV/B4LCmV7R3S9HSxlD6xlEtMDcNSB2p7pAbCEOz05lKUfiA1GGOaTAqWRllk1AgYgBG8HHHjPM00IrMltQWuBKDvFKis9pEDAAhSPd9Jwaw24FHZX0euELtG2dymIzGZE3yWrdOYLrYWrpahUkaXCy3gBAE4XISNrGFkT3OsEayIdym4nydZtxAGvZxAB05Pld7BvVDa7VXuBoU+Mbn9rtBO98JGD/zC15XYQLS/LDXdeq6hgqMJgJq+P8QDfvkq4LZalg5AQ2XmZCn+zgA0dnffD5Jpn72Q41TtFeCUC+8QXsDUnuEKzlQRaMyz5CMOGPZOhieaACIQEPt4NLp/S4zhtBAx8hmIKCdmI6mHD/dqzUI268q/sKQxGXvSFOpnJ97k5XG1GXettlaLkTDt7enp/YE2kZ8hbMqH217WmYuuqldahB3V8SATp+ce7MKwQksdb+29g/eRTBw/bBHJC22d1AaBGFiaxC29p4CM0J9ZeUfXV1p0nEw2Q7dg8r6UiUTl3Xv0NzqI4V9VXskvlNXnbbZBmFr3vaE1slhOvjY1KEyOPU0HY2BgPZAUC+tsLb7kwb/+/bRz8rEXlerJwFJSI+G4OJ/0vCM9Qq20tsuFp4SK7Sc3HLTGrjR5+Vea/JyN7Sok+/V2lTD81DTgGDTQXx/m4t7wZRxNBHUcUgqTfw+ULjbFxCABZ7zB/xCpxdABxGcWr77S1lfvFCKa3ZLQ1OddI5Ol75dhsrxGWOlR2KOed9ar4AYi3d96j2k4wSIhVt8Zv8rW5T1Qv6DuooKWHO58LibdAPM5v3fmHJrJT0+R4ZnnOrZkNTSO6Gd7Ntg7SN/71ytK+iReKwMTZ/gDf37w063oOAjU/Zco71K9MRZZmKuDM042buGYr+LXfSvjdZqr2o4M1Am979V11taO796NBH0WVmExjb/QOsmvoAgnJ24fPDt2hF2Q/k/0PyPOuUd+zkag6V7N2KgeRh5/msDvuSg01mS5nQanW9pIMv3x8Ce0HNKCxJTPkG6vyz6pbbB3wgmDcYy50cORIStMtm78tSym1WT+aajXNY8mPqmHD9N70GiWz4dLkmRPTx1skCZ/GYH0c5gopdHA61OKzYY2WxuoUFuri1z6Mp9n8r98y/XlUY6jwsgCN/LnmchHp7FYwtu0I0qbsQACOqC3F+rQN1QWW9tgEFo7LquN9qGSCr5c8SSnWR2HmjGPy74ialTg7YB45gzMPbIJs328hXy+OJbvWn45PAyq9Z4bXY63x3epMv/9kN5dtndJi8rXXREZ83TF7b777tH5LtGSAepIyOiJDUmU5bs/cDVvaRD6w2ZFhW+qwd86xrYWmfFHSAKnxx43le1U63219f+Sd7f8oRu83fTSgDhdY3NlosG3qJL3L4g328KvzRejrVYiAC6xvWRO0e/JKdmXyqDu06QBTvf8xww5lT6BhmXNdm0JUreXvuU7KxYZ/63jlKygnzRwF+ZdJdJY0O4rCv5ygg1QfbVbpH02L7SPamPaWeEzFo+XeuN4CnvVyNn6caniaa80upSQ6iVmq6gcqXkpoyW1LhucnLWpUaDNMjWsuXaV0yRNw57Wib1u948bz8/6BK05gBUmniCm2trA+Fgn7Dc/8GWJ3Vl8N5558n0OedpHIJl5oe/vkz+sfZ+FQojzFfNOgGv6aLjbjflt27ds4DHyTNGI5oP2+a03lerMKjf3ppNOv/TFnZNQUwEfEL6Wbq7yo4yntl/ivekGKufXxW8o2TAltpcttgrYA4z2fYTfTXZTFs22AS0cOeH5l3TL5HxckxsT88TS7MxlYRybPJoICRyAISCcNxcW18gBDodoqB2bfjes9Vta0AA/q6rExAk+fuG1CEBG1/s3dpMMZxDYUqxA31MC3ldx+q7B9Asxx0zVtORZpchM/BdPOSZ9RtfB9IxXXJoG8JxHGBP5Wa9Tx+6Tc3tBaGTw3Q0wnFzbY8UEACuq+3ZtIZAeyTRIsRUbLDiW2+8GN/V50BkjTVTA7CnKwhTWVdqUh3I/2B7oVliOnHoCCKGSXVDy9Nx7R0hkwMwOnAR3cLqhxvYAYTlg11SR4iWp9JyhBZXFepiIYAknE7jCKQvYdiG1xJhJq8iQxrLGMdQ5R4/qcReEABJ+HmplgiT4upd+kn+8aYc/v++oG3kMNqDE+f/1esaVfVHGgiEKCy70bEBggVThOUxec6vGI3w5Y63vcY02sL6nbB4XdWlHJ4t2PW+vqtpzIWmwiaBHAi5V1KepidoZ59w13T6mxkHPBnO9Fo2iWWsEteBkk6wjfX2gjaRA9Bh+ttYntF0JMEOpx8PuCPkjsOeeWHlXXrIh43SnEPZsN+KukLqIWlnGmJY08XYHuebe5X6bGvZMnl9zeNqi2CwcsjJhsZIep2v2hNSsbGGvEjHb4hRFgtpxEz49R9+RwwQ7xiVZa02AzSbvVEKT44fwpmzdbauUbUXggQdBAsEGsHI/Ovyn0vnyExt8OEGHd87aWiLDcdOYOT5BsFsoTFq7QAV3yEzQv7tmFe9BitteeTrX8juynVqLJPWNlxZ3yEdof4xGRfLxYNu8daFDbz8Bpn9U1Mt0yWadJ00HedK7B++oyz/Xf2ko47tKRDWZs0BqPyQbuPkZ3kztUOwC2jk4broVKz9a3/wUKvEAIzKjPhsPQOiguzxY90ux6hldEIS6sjUwI75Fp6M+bxpxJ9l0DETNS2C0v2x5mJ6Ypc9J/B8iQEwQjmDC4FJBw6kq9LyOCbKuRI7HWURJueXB0lDW20QIGOn3HdNDHBImsMGI5YVWdYkdlW0PJzcVuAd+K+7BIs5W62w+km9z9O6Ed7eVJSvxiMHg45LG6lCDSQA7BO2CqzZu1QNWozXrgk9jQs8WI1hJ5KSjvMi6/d9IxX1xZque1K29E89Qacfp3T5hfNlt6fPiKy2du7laOKwkMMG6jLQ+klbgSZoSyfZc7ad1rdeweRppw8lDWhLulDrdjRxWMnRgf8sHJLN0YH/bHSQowOO6CBHBxzRQY4OOKKDHB1wgMj/AyDJgMl1hKzQAAAAAElFTkSuQmCC;" parent="1" vertex="1">
          <mxGeometry x="194.47" y="735" width="71.05" height="30" as="geometry" />
        </mxCell>
        <mxCell id="K3JCWGEV4drO9uTMXzan-9" value="" style="shape=image;verticalLabelPosition=bottom;labelBackgroundColor=default;verticalAlign=top;aspect=fixed;imageAspect=0;image=data:image/png,iVBORw0KGgoAAAANSUhEUgAAAScAAAClCAYAAAAeVTsmAAAAAXNSR0IArs4c6QAAAARnQU1BAACxjwv8YQUAAAAJcEhZcwAADsMAAA7DAcdvqGQAACw6SURBVHhe7Z0JYFTltcfPJDPJTFZCAlQkLEIVULS4YUV9+MRaLfKUKmhp3SqttRYfbRVf+1prfVrB11p9aqm4W1wQN7RQK1TUQguCqFDABQTZBBKSTJaZZGYy7/t/97uTmcm9d/ZkMnN+bZx7b8Jk5st8/3vO+c45ny0oIIZhmCyjQD0yDMNkFSxOGaT1zVXqiGGYRGFxyiD+De+R5/U31BnDMInA4pRBisaNo7YrvqvOGIZJBBanDFJ4xJco4D5E/o+3qysMw8QLi1MGKRwwQD56/7FGPjIMEz8sThmk0+GQj74VK+UjwzDxw+KUYTDAgSWvaScMw8QNi1MGKfD51FEr+erq1THDMPHA4pRBAocOyUcMcnDfPnnMMEx8sDhlkMD+L6hTPHZSKfnq2XJimERgccoggc93U0FFjTy2NbjlI8Mw8cHilEF8b79NNqdTHnc2N8lHhmHig8UpgwSWPEfkEuJU4VJXGIaJFxanDIGs8NDguj1kKy5WJwzDxAOLU4ZoXfqKDITrFFRVqSOGYeKBxSlD+O/+PdmGDVJnrVTQr1IdMwwTDyxOGaB97TqyuZHj1DW89qFD1RHDMPHA4pQB2ub9LwUHDhFHyHLSQIcChmHih8UpzXR8uImCy1/VVukwvB4vOS6+VPsmwzBxw+KUZlrm/oKCg4epM6Kg10uF552rzhiGiRcWpzQiW/Kuep1ItUqRuOvIedaZ6oRhmHjhraHSRLCllRoG1FBw2Ch1ReDzkW3QQOq/5m11gWGYeGHLKU24v/cDFQTvIrhPWE0//ak6YxgmEVic0kDLgoep/aXnVRBcR1upK5k2VT4yDJMYLE4pgr3pOub8iAqHHaWuaAR3HSDXYw+qM4ZhEoVjTimAtAH3hFPJFhImpfXogOlwUPW2Tdo5wzAJw5ZTkkCYWqQwIQCOYewayuC+XVS++Gl1xjBMMrA4JQHKU2AxBaNcORDctZ+KbppLRcePU1cYhkkGdusSpO3FpdQyc4aKMUVpu8dLtiOP4NQBhkkDLE4J4P7lr6jj7nndY0ySTmE17aDqQ3VkK+tqlcIwTHKwOMVB0OejxhkzKbD8b6oNSrQ3rAlTvy1byT5iuLrGMEwqsDjFADuoNJ4xicgfiMpj0lHC9MFmsh89Ul1jGCZVOCBuAQLfTUeNMBcmYVGFLCYWJoZJKyxOJiDru3nSv2m1cmbCtK+OqnZ8ljFXDukKTXfNp5YnnlJXGCZ/YLfOAPfsG6lj4UMq8A39RilKmI4jybKljSr+tZEcNdXqYnrAxgjoP+77xc+pYPwpVPnCYm5Ux+QlLE5hoLNA/ZSpRFs/JltVhbhiYFh6vMKSKqL+69elbVXOV1dP7S+9Qu0P/oFs2zbLa67Fz5PrwinymGHyERYnhf+zndR02llEzmKTwLcAwtS/H/V/Z1VahAkxrbb7H9T2t5M7tbRS0azvUfmdd3I6ApP3cMxJgOLdw2PHEFVVmgtTQ5OWYLluTcrC0frsYqofPU7GtDrfXk22igHyumvZcqq4714WJoYR5L04tSx8lDwXnE+F4U3iohHCVDhujMz8toV3uUwAuIwIste5XOS5+npxpVPGtIIH95BjxsVU7d5PpWdP0n6YYZj8duuabppLvvvvCwt8dyfY0EgFJ55E/Ze/rK4kBhI43ff+HwV+8XMKwkKqKhdXxe8SLiKEqfTlpeTiHuMM0428Faemb11BvpeWCWE6QpxFrcYpIEyOc86myqefVFcSA1ZZx+wfKlHq2lQTxcEFk86gqucXsQvHMCbknTjJXt9fO5+C23cqK0YnUpwgIIWXTKGqpx5XV+IHMSzvVbOEZdSgyl26QNKm4/Y7qPKnP1ZXGIYxIq/ECUv27gkTLUpRNJIVJghf4w9+KFfftD5P+qaaXW5c+aq3qHjCqeo6wzBmGAdachCkCjTXqg0IXEXaowGyH9OsmQkLE7aFqh9QQ51/RXFweNcC8aVW+tCxgIWJYeIjL8QJwtQ4dozWHE6uthm/bV2YsJyfCMgo91w0VbOWIlxFPOencjVOrvRxfIlh4ibn3TqUgzSecJyyZsy1OBlXTrqJ536daN+BiIC3jhQmji8xTFLktDjpFlNMYUpiVQ5FuY3CRSvE1uMGuU8QJtdjT1DpZdPVFYZhEiFnxQlWTVPtELKZiEcItNYde2xCeUwoO2lFxwILYeL8JYZJjZwVJ5SH6Fs0mYLvV5RT9cZ31YXYQJhQdmJmjbEwMUx6yMmAOBIssUJmKUxY5m9pk0W88SJX/GIIE1w5FiaGSZ2cEydkZfuwNbgMUOt5Rt1BMmTlP+NfQZM5TKedqbmJhsK0nxy33sYxJoZJEznl1nUFwC2KeAXJuF6wxvwrhZVlsCqXTNyKYRhrcspyapn1fWXZWFhMDY1y08tEhAkJlgFpjUXmMOnIzO+nHlFnDMOkg5yxnFDPhtYnllZTEgFwUOeqEc+LAuHuwJ1z3jefymZdo64wDJMOcsZy8t3xG2U1mRPct4sqn3tWncUHGsNZUUCtLEwMkwFyQpwQa/Kvftt6da6hiRw3zE54CyfvvLuF1YTOAt1dRbiIhbffoc4YhkknOSFO3rffEf+1XnULug9Rydyb1Vl8oPQlKDccwDAZDJW7jlxf47QBhskEOSFOnRvWk21glTozQFhNCIInuo2T9x9rQv29zXAchZwnhmHSTU6IU2DPfnVkjLSavv0ddRY/ED25G4sVxebtVxiGSZ6cECeJvVAdRIONBEYltV24f/1Gy95PwN/kVkcMw6STnEglcP/yV+T746PGCZIIhH//Gqr49a/Uhfg56HJZ7sqCNALXsiW8a0qcIMu+7bU/k63IuAtpsMNLjrFjqOj4ceoKk8/khDghSbL1ossNc5GwouacfyeVXZm4W6eJk0W7FY+XCi+6kPrd+zt1gbFC761lvnjRKkuAKm9JbOGCyU1ywq1z/jssl1btJBq3h2zFMeJGJkiryRdQZwa4nOR/6A+yPQsTP7iJdH0NUl/iGIsPdrv6KSbfyQlxwkaXWI2TnQiiqXBRsDG5uJD9xPHqyBxMqLZ589UZkzj4COZO6JNJHznzqXDN/pFclYvG5nRS55ZN6ixBTvyKjJNYUlUpN+aEy8IwTPrIGXFCDhPiFYgxRSBcr46Fi9RJYthPOlG6hbFA2Yz7qqvVGcMw6SCn7OmKn8yRWdvdS01aZYlLopScMVH8N4blBIRb2blxi+wlxTBMesgpcULsqXTx87KRXAQVNarEJTHwfIWXzJCrcrFAQNc7+4cU2P+FusIwTCrkXCTSdeEUclx8aYSgoNtlxx8XqrPEKLnhetmvKR7g3jV/50p1xjBMKuScOIGKh/5AASkoyr2Tbte7SQWtsUOvbfRxWi+oWIjfg+4IsdqsMAwTm5wUJ1hKlaveinDv5JL/n55SZ4lRtuAB2QsqHlAq47n6ytirfAzDWJKT4gRg8cjVu12qKLiqnDrunpeUaMjninIVLamooeb5d6sThmGSIWfFCaAMwj7xJCUq4q0K0Wj90zPaNxOky1WMja2qH3mFEHLmOMMkT06LE6h8+UUV0O7URGPOjygYT/woCriK5S8vFZbYp+qKNYVwIx/mTQ8YJllydsffcDo+3ERuBLaHjdIKgW+7lcquu1Z9NzEab/wx+Z99XgpdLCBkNZ7YSZz5gl74a7oJRUMT2W/6T6r86Y/VhdRAblv7zp1ka3BTZ30dBZoaxUW/9k27nexDhhANGkjO0aOp8IgvadfzHIxZ4OBBCuz9omvM5DfEuIkxKxwwgGxDa6l4+HCyjxiufS9D5IU4gbYXl1LbzBmaQAnRqD5UF/eGmtHUD/uy6vNkbXgGsD/esuXcUkWRSXGCC+3f8B75Vq8m/4q/kX/ju+qv0/U3tlWUUFD8zyb+B4LuNvmIRFssmNjn3EBlV16RkFC1PPGU1pTQhIB4T6U3/SQtbWBi/a5gXQNVPPGIzM+Lh+gxw4p2F2rcKlyh8QIYP61qArHbUnLcejOVzphuKVToGuL5/QNUfPN/Eh04KG8ImBN1k86hmlUr1U91J2/ECaDvU8fd98sPabI9nkC4JWZJCr2kcpF0ixPu8t7XV1DHk0+qiSUmFCYTbjpxTtAuOoVV7ZYVBtgIo+LO/4lrkmvteqaSbaCwwgwIHmygwkumUNVTj6sryYONXX0vLTNuSe1tl3We1dus60iRJOx5bRl5Fy0iWrtGXCmV84HKxFcKY1Y063tUfuedpjd8eBxoLdR013yiDzeT88Yb5Nb+Vp5FzsecwoFI4IMC9cfKXTIlLQB3Qcftd3StBJoh/uC4IzHpBXsUNk4+j9xjx1D7rb+moLgbQ/Bk6xW42wlPMlAg/y2ex//kM1RfcURceXHOiadr2XQup+EXKgcCS55LKs4ZTQAu6uAaw98DHNO/KR+NaF+7jg6ffxE1HDWCvLNvJtvuvWrMjtCaNKY4Zr7nXqKGATXyxm1E8PBh+WhrayP7rGuoee5/kXPBQ5bjklfiBOQdbMzRcuXOfb0wM5MEd/eC8WOtkzPFHzzSVGbSQesF51Pgkx0UhAUWMbHS9HEWzwmhg5UXS6BgKRTHTDMppba/r1bHKYDPksO4HTVc1MKx4vNoQvOkCyi45V/ifR2lCVJSYmSBGLOgeG54FEYCBdcWOC/5pnTp+j32CDnPOtPSOs07cQLVb/xFKH4Fda56XZrlyZJIciaTPpzo3WWJsGUgFsJNxAIILNzQF7pWSCHpvg9hJMIqEJOt8YQJMa0exyWXSPfNDLhNvpeXqrPkkPEheWQ2ZVtli2MzEBuSrp/pv9fGTI5XimMGgYrOJ9RjbvojYlSxAup5FXMKB3/s5tohcrir3e64g4jRuGffSL5XloVM6wjEh7pwxDDqt+J1dSG/SVfMqVtbZjHOmAyd7jo59VDj6PjGeRQcfCQVHnGE7ISKvuXoUY7Gg4Htn5Dvyaflz1u2YRZgYhZ9/7uWcUN8lprEZ8n0fQlSXbmFNdKCSW/yO+Qij8XnWNuu/5JuY6Z18RBjJsbB8bXJoTErKBfWo6OAOlvb5Jj5t26hwLNLZM80/KzVmMm/4xWXU+Xd89SF5MhbcQKIOR0Wd5viG2YnPZBWEw4fbMecH3FPbEW6xEkXA7jmmFyofbTPvJycZ55BRcceG/cqLCas97IrYgaD41ndxcoT4jhmz4PnKF/1lqw2SAZttfmaLnEJRwiN7ejR1H/5y+pCdyBE9QPEeMlVuNbUxuza67STGGNWuXtPwntFhmMhf7kPzMr+H2ym9vvvkwHDZJBbTmGSGJm8YuKUTjMPUjLJIRsLXnwpOf/nNqra8RlVb3xXCpos0o5zkgHEPvpv3ypUE33irVyWUrlrjBXOq6+yLI1CqkL7n4WFnST+99+TK5GGtLRR4TlnqRNjMC5o/+NccE/qY4YVQSlMFmMm5kQq7xfktTgBiAuKhLGsmSxFM6YJX6NDnSmEj154/oVJ7ZfHxKby6SepbNY1KSdPYmKWLV4k7vRRPcDCwNJ9R4yJhuCu7iIZIms771cnidPx9jumIoJguOzaGgMsBmEXopTHTAhT+eKnKWA1Zk4n+V55VZ0lR96LE8Ddo/TlpTJ+lAzB4u7xJpTMlP+WNz7oC0hXa8Lp0j0yxOWkwJLX1IkxsMKlu2r2HHKqtZoutVshA/LISTJ1o1qpaFzP7vWHwHbRRGGtmY5ZEQWWszilBdd551Lh6ROTWr3r/OKAOtKAv+2874GYqxFM9uCcOdPSLYMAxFq1s197tfVzCFfH89fEP1++rdvUkRHajtapxHaSxf6db1u8X01arMfUGhanMEovm07BVk/CrXaRZKev1iEIDt8eLgfTd3Acf5y1Wwbao1z3KFxfO9fyOZC+4v/DQ+osfnxbtqq4pgENzZbJl5mkaPxXYo6Z32uV/2UNi1MUJdOmUuBQ9y2mzIgIpGO1adzYtJQqJMKmvU20aN1uunflx/SrP38U+sI1fI+JjX3oUHWUPFoOD+JCZoHiApkXl2hlQmDNahnDMQLxJsdEbMTR89gGD1ZHmYHFyQA9USwePD//hayrkhbTuDE9ltO0q76NrnpmE7l++Xc69Y+b6NrXP6db/nmI5r1fR/M2H5Zf1765h059eiu57lojxQr/hjGmoLxcHaVG0U03SGvGFGEBeRMsafIuFNaWLDQ3ojWuYHgmsFdWqKPM0KfECZNr+eYD0kLAxDxzwQY56XCttV21wuhBEJ9Cz3BkBzvOObvHhAnW0Ipt9TTrlMG07vvj5NeKy0fToguG012nDaCTK8UH2a/dvcvtQSovKqR5Wxpo9IMbafYLW+R1Jopis8mfGMXfuEAmKpqBFbeOx+K3rGFlaZPUaKp2agmnvRBv6gmyNgkTYvP+7iZav6uelnzSTOv3eYgcNjp5gJOuO3EgnTGymoZVl6if7h3qBw2lgPggopwi2zoPfNHkoYf+sZN+s+Ewlbvs6ipRc0CIVaGN3r1yXI+PX7qSMDMBgt31FRWmry2eREydgy4XFZq9RwGeC7lG8SzpWyZfivHq7a4XdeK9Wo1ZKomYWWU5wSKAVQSLqGb+Wpq85CO6Zc0h+sjTQQ9PGUZ1N0+gd647iWaeWtvrwoT2KxCm8sXPZ2VLlC9VuuiXXx9D264br65oQJjA6AUb8zYehRUkLHpALLG0j7ih59Xl4jvxJyNa4Zz1PZnnZk4ped96Wx1b41+1UrVI6R7HksW+PdQrLDRmwpLTxwzCieTSTNHrlhMmyAvvf0HzPqwX4y9eil3ppXBLZo2uop9MGt7rQhSNnsJfsXZ1nzCpYUUd/8iH6qyL5lY/fTb7RClkPUFPWk6YRL7Nm6njo4/J9vku6tyyTbjgG8R3tKVtfMow3bVH1dMIHQ5MSMRy6lb7F40QLvvEr8pE0lhoVphxLVsirykezMasE3Et8f1weQyNm9l7FKRqOfWKOMFle3b9frphzV4pQuXFXW0gmj1+KUo/mzyixyZNIqCuq33JS0m3+e0tEJeb9tp2GX/SkS6ePUgH53xVXcksmRYnPH/riy+Q757/owJ3XZfoOIu1H5DpHrokJUYiQgArA3Vspu9TIJ8vRsG5ZbGvcEODtUdadpKMBwhS6wsvkv/u36tYWdiY2cVnJdSiJbkx6zNuHQLaCMjCZbvh73uki1Hu7GoBCmF68T9G0X3fHJuVwgQw0D0pTOkK9J9/3CBxE+gaa4Dxb/YG6cWN4ibRh4EoNUybLoUPwoR8Ikxo9GSS1hBEKdQ1IvMfeQhY7K3EYvd46lizljpN8psggM7LLldniRMas7FjyHf3PbK8BmIaMWZSODFePSoTIXrkt2KCYXUNcY5ndzVTeamdyh3iV9vEXSxYIO/g+MJKEyZRPgLXa/Wn9TI3CSuQA+/5B13/NNyQ9HHPxCHU7IuKXQg3+p61iSWdZhNNN82VotT5wYfa5JIbT+gf63g+3vp4RI1LisTT48m/DHEuc9B+GEJriLAMi06foE4SA/FSOWYbNqYwZvpX5si4W4cJN/mZbcJMLJQuBMTICIjTrKMqpNWUi0B8DrV0kFtYhzsPt9Enh9poa72X3qzzSouRCpRV0ylcLZedVs4YTeOONI+BJAPie6c++a8INxog9oTFhtLirlW9TIC7tVtMCrOeRIm4dQjONp52JgW9XjW5TID7gxKKUFN+MxA/wY3R+POZaHwnvh5P+6nGY5xhHevf4/Uk2h8Kz+k+Y5LMyeupMcvamBMm5Ijfirt/ubCU1CqRFfoy928mDKZTh1ekfXJmAliFzV6fFJ49DV463NZBdc0eahDu0pb6ZlpV76PmNnGHgfgg4I9HBP31Y4F0r8R7p44APXzuULkamQnwWuFSw3INp7k9QOuuODbj450ucYIwoRc2cnxMi2HFcyGGYp94Ftm+fp5MVHRUVxO2NuoU/wYJhOHxnlhxokTFCcTT46li7TrDpF/Pq69R6/SrxOsxCDgjoD59WkI9yDBm9WLMCuMYs4Lxp1DhtItkMTHSHUzHLI70i6wVJ30ySKspDnHSka4HXpZPiFVZAZ1dXULHDiyiSkch1fYvJZfDThVO8SUsjAqng4rtiF1pg5bs3V+P7ehCAwvH7fWTx+enBiEuLV5NcA42tdAmN9FHbUKUYPEA3erRwXmY8IQjRQhAnPAecS7e7oxRFfTAtDEZt15ct6/uLk5CFF+cMjLjLnU6xAkT4vCQkZYN4jApioS7V/qD6+JuD5IJcWpZ+Ch5//tWUysFFozZHooN37mKOt9eHRYr6wIWV+nLz8hi9Xipx3ZmMsDds2OW1at1mPS/ffMTun+LW96h9YmbiFiB0KRWmc8STHCA59SPjcD3o38dfjzWv9HR0xsEupVj9fojBCj0Jc7F05xc7aTxA1w0sp+djh5USUOqnHRUTWnGRQlIS/b+9yKSMgH+LisuPYYmjkruQxQvEKdUV+sQY0KLXS0W092dwIQws0asyIQ4YSUMAWfT92uy4pbOhFAgt0T74yNKJNUHMQw8XzJdOvu8OIWDmMe6nW565/NGem6P8GXFHVuiBEsXhJjChUC6jkkMK1OEhAeEi488F69dWXpjhAjV9iuhwZVFUoAGlBX1+gqkjP89/1H3mJOwANdddVzWu3Uhd85iMriS3MQ0E+IE6kcfq46MP6dGExh5dNhhxjDLPIEcKRBP7Aq9zBKxwnRySpyigVW1o641Iki8091B25s6aH1ju+byhKNbQLYo8Qq3cgSxxC1CYHRCAiMe8c9xql9TlJdowjOo1CEtH7iYg8qd0r3MBvGJBbLvb3nvcLfxgTh5fp75yvZULaeWBQ+T99bbjN0kYW3E6qNtRabEqel/fyeX6k1dOwMXDRtQBl5+1dSlK1n0qOyeEQ+WriXGbNBA6r8mvmz1aHJanOIBrki7P0hur0+K2IFmL3l8nSROQ3Ggw94AuYUVhuv72rryglD2EmFZKYvrGFcRDS6xk8tRQBVFhdTfWUhVThuVOV2E0FX/kqJQTAuig3hWT7hdmWbg79Z2c0lxPmNIKT1+eeY7KaZqOR0+/Sy5gaZR3AST1vXYg7InVzJkSpyQSGm5O7RBcDtWvVoirwMbaWK/OkOhQ8xr/p2ydW8y5L04MelBZoi/8mn3eJMQ/BUzRmc83gRSFicxabFxo5GLhImQTKxJJ1PiBKzEBrGA4K4DoZQC1Kw1Tfo3U5eu4KTxVPXiYnUhNtqY6c8VGW8KQDxS2BEm0+LUswEbpte48o0d3YVJWE0I0PeEMKUKYiea3Wv+kU1XT6Z0g1UwCK8xeD+tMngOvEteoMKBQ+RxNEjqLP72t9VZbCAeYdFZQeTY4cwmxCtbYXHKAxBrkrlW0Qh3+PnLezbp1eBVxEWBzxfzw9rZbNHkrRdB5wCrHk9IZtQ7qgbuv8/QBdNoJdfXzlHHsYlnPIIpbPSZaVicchyskKJDppE7t2jK8B4P4mfuA1dK/k8/U8eJk0qv61jEWj1ESxT/hg2RLZ+jES4detMn4lYicdIaMWbKYkuGTI4Z6HPihAA5Ex9YDT31qX8Z5jXN/UoNTRt/pLqS/RTUVJNVCbRtcA15Fz6qzhIDKQrNUy8mbZvtzFBk1eNJWEr+FX+j9kWLKGjq0u2homuuUmfxgViPlaWKMfM9/Ig6Swy42XLMkHGeIfqEOCE/B90MXHdYV3EzkYx48N2IFikAwjTr6H70q28co670LMm6dSib0ILEJs8gvt+56nWZI5QIKBNB7pRcBczgdHB8Y4plITCEy/fKMhOXDu+5NKn8Lfv4U2TKgCFizNBmOtHt0PDzyJ0K7t1vuHKaLrJanOCSoDofHTEXbmmQq0rZnkuULaCbaHSCKlw5CFNvFlen8oGTWyBF76wcBlaNPBecH9fGlVg5bJg2nVqnX6qtNmVwkgHnxNPFf62KaAUmsaZgg5sct/9MnSVG4VQhii3mvxfvvfWiqdYupUIfM4/4eTlmprGx9JC14oQg7qmPbpYTTL/794VVpd4GrhyEaX1z5N0SnQfunzS017s+JGs5AWweEBDujRWYNMgrQplLtEjBfYOlhNyfrpYhmXPlwkGsCNvTm7p2VrjrqGzmt9RJYriEWKPxnhUYM2zHj+RPszGDKCENBGNmmgqSZrIyzwnNz2Yu26nFSvSeTz1U/5Up0GhvT4Mno68fwjTigcgeULKIusBG6741pte7PMTKc7IqhNWpG1RrWlcXgRABxGkABDH00xU1WlBZWkoR3yEkcpq1nU0lz0nHcrMCM8T7KDhrYkp7IdaPHqe5drGsQ7MxQ2sU9DGXllJiY5ZzSZihynm9hk65JxCoh8+pzVhLkVTRezahdcrHB5poe6Ofnv28SVvGx1tx2GQ3ynevOCHtfdFlr6Y/bRGfG/E7VN8sWEuzxlZlTY8sy7azgngylrVWIsoVSxdi4mKzS9TleS77jmGpRzrEKVZtoBH4vckU5Yaj9TRXrlhSqHkYcUPoJNuuHVQsxgz99LV2vuHf1157TomTWUM0HQgUat/mjqum4weX0UlDq6imrChj5SWwRtBGRS+hCe/ZBPE50OqjpQc8WhEzavw6tWZx0fV7smREtwKFaGAZP12rZdLS/Muu0JjBWiovIlo5fWxW9cRCsLpduBmm4oQ6s8WPk+vCKeqKMe7ZN1LHwkWJWSAm6I3XKpe/SvYRw6npW1eQf/U/usVT0iFOIFaPpwhSrH0LJ+1j5nRS5Rt/IfvRI03bu+ScOMH9weaP0T2HoglN/oCu6kQn9yuWNXMozAV6zZwZqMsD0bV5qMlDb+1Q4S+EBb9Pr0lD4XFYsXHMLgph6LVtCE4jO/vBC0elJCBYxVy4rUETRAi3vYAWTa7NyjSBlieeIu91c0wnSCJWgjbZHhLPZVzOEpMGrbGa49bbqPKWm9VF80LddIlTrB5P4eB3JtsxwIiUx0y5fch4D98OzWrMcs6tQw9tbKsdnZ8TDxEWiy4uyqIJPYYTJjIgEaFJBfk6YW21B2nWCf0Tdr0g4qc8sUmLKWEHGzFWC84ektW5SwhS+598xnQLpkQ/zHBX2q74rhQZuX9aFcpXLCadnFxYzm8lxw2zqezHc7o1VtPdxmhwCxyQBnHSezwhjmNNq8whqt6+TZ2nBzlmN/5YjjW20de2ObcYM7i8WO1Dz/JZ36OSOXOkhRmO7jYakXPiBFCoeuVfd0oLg4oS66SZjUgxQqM85fZdf0w/mjCsH5315eqEXVLZ+uQtVOfbaOqwMpp9+pA+sVBQP3K0dmDo0oixaWim6gOfq/P4wTJ4+5+XkW/xC3LSdVEqnrU1NPWQYV188TRZAmImMmj01vHeRnUWSSpxn3AwmTuLrN26gg6f1lo4yYkdi9CY/fHRUGmN7oOES1XBpPOo6LJvypVSs9eSqTHLWnHSQQLmcx8coIWfNGquFSwd9ZWtghXhcuJYiCs2b5h0VKWMkSUbDJfxuMc3S3FDn/VvHFfTZ/K+urpCmrgUwqpJtC+2EZgogT17KXDwIPnb2uS14uHDu93tmS6Q7R3cty+izq5w4MBeH7OsF6dw4Mps+LyBPtzXQit3t9D6+rCcEQhVCrGgZAiJECwi+QjxJJpaWyY7YcIyGl9bkbKAICj/8N93yOMZJ9f2yURUGWuZfbNFvCnxvthMbtOnxMkITFx009RX0dBNEwFurKIhuC2TEfV2wEZAwGKNQHScSlhCJ5c7Qr3A0RHzywPL+kQ3zN6iHg32LTKK4Y7F2gGXyS/6vDglAoQM6KkBAOkB8hGxrSjQCVM+hu3wkgsdMXsaBJk90y81zyxGk7krLk/ZpWNyi7wSJ6bn0XYSOUK5c3B/u8ebYDX127KV40JMBAaRSYZJH43XzJJbb3etBUXh0foUsTAx0bA4MRmj6a755FvyXFj+kYHVdHAPVcy/S50xTBcsTkxGkJtf3nar6sFk/DGDO+dc8FDcO8wy+UWfFScEtxet2x0KcjPZAToPoH5M7sprUWiK+iy4c8luS8TkPn1OnJDrdNUzm6hm/lpau7uZV8+yCBTNyk0zd++1rB2DMNnHjU2pDQiT+/QpcULNHYqC5VbmzkI64UvZuRVQvlL22/naB8oiVwnJloUTv0r9VryurjCMMX0mlQDW0nO7mmU/JL2/E/jwu8dnVeIj3Mz3dzfR+l31VFPuytreU5kCPZsaJ5zafVNIFJDu20WO2+8w3TSTYcLpE+KE+rrJz22j8hIhSmHCBNAmZO7x1XTuMTX0ldrKHnHzIEB1sqmcR26PvvtwK2082E7Lvmih5pZOIrsQULt4nYFO2cYl1bYofQ2t4+MMLeak2mzYJ55FZQ8+KPv/MEw89AlxemT1brrh73uo3BEpTOE0o0TFF5R9oI4psdPIyiKqKCqUPZ2A3tepzOkip/A6XFHPhV5OAAnjLV6P7PUU3edJlsLoxbw6qOWDEAlCtXyqqZwOmsvNGFVBd10wKm/KW2QawW23yjYbxTNnpq2in8kf+oQ4yWr8RzfHbECnE9HTKZzoGjkzwoqHdQyLiKNEyAq9fxP2i7tp8si8COSjD1Cq/Y+Y/KXPxJzCOz72ZWRzuNaAbDA367Qj88rdY5hEiO+2nwWgU+Rdpw2QLpKpZZTF4DXLNrodnTR1VDlNqC2XXQwYhjGmz1hOOshz+u2qnXKTTSoS2pqlTeekgMKNRK8newHNPa5/0p0vGSYf6XPipIMVs9e3HKDnNtXR0l0tXStkgp4Wq5AlpwfLhWDOGF5O547sR2eMrE77NlAMkw/0WXGKBukG2w600TufN2pJmnqDOQS39QC3ekxWvELWEMCj/CI6eYCTzqktC21VxWLEMKnTo+Kk5wdt2d9M+5o6aHdjG+10d9DwiqK0T2z8LnTIRBO5nYfbIvaZk9s/iS8ZA4pjBQ9BeD09Aa/1ywNKaHj/EhpS5WIhYpgMkVFxQgrAup1uzZrZ2UzkEWZGsXB5jqqQLs/xR1bQUTWlWRGDgZhFw7Ehhuk90ipOCFav2FZPj286SOsPeYUbJS4KPUJ+EnYLmTya4y+9AUp/Hpg2hsWW6VOkLE6wOJ5dv5/+a90eam7TVqZkbKcjIC2kn5w1lHN5ehlk2OOG8c51J6krDJP9JC1OXzR56M4Vn8nESIhROcpDVLY0Eg3XfTu79unPZ2Y8+QEt/bSZPL8+Q11hmOxHU5MEwZ14xH3v0cJPm2SwuLy4sEuY2gO07doTWJiyBLSZQarF3AkD1BWG6RskbDnJu/DeVk2QjLB10sE5X1UnTG8R2s690SdLZZBhzzB9iYTE6dd/2Uq/eb+ByotMhEkAy2nR14fRtPFHqitMT4Fcrzc+qqN5yJ5Hnlcn0cPnDc27nlJMbhC3OCHwjda48XQGaPb46eRqJ901eThNHFWtrjLpBH8PNLVD4ulftx/WsuThWWMxwh+kWWOr6DdTjuYVOqbPErc4IU1g9IKNhg3fjJDZ1Kgr6wzS1Noymjq6f1blNfUV9GRSbLf+8YGm7k3t9Ox3IMZ71ugq+tnkEbwtOtPnScitk/Gmfa2Wbp0REUWw4v+wvi4bVk4j+9np6EGVNKTKmZeihRVPbIuOjppur19mze9tbqEdDX5NgJCaEV5qU6jdFFB+Ez6msFKvO3EgXXTCEUmNIYLmV59WyzloTFaRcEAcH+R579XJjgBWnSljEVEsqyOuYfXv7BonjRETrrZfCVUJS21QuZMqxHW0GCl3OrJGxPSs8mavT4qMWzyiXAZC4/H5qUGIC7pqNvkC9MXhNqr32+lNYYE2t4v3rr9/AAGyRVpB4fV/obECGC9fUNbzXTVuYEqJrRDHS5/ZQuMqiB78FudAMdlFwuIEuiVeYlLZhVglWVAbTWgyysLasGP9+cXkJIdNbnZwjKsooiVvdDveaPQ2vNGgLS9Aa16gt+cFqMUDH3k6uoQFryVcNEC4iwVwrq5FjE0cHTQjrE0B3Onrj05f25V7V35Mt7x1kMqrCnl1lclKkhKncBCL2vB5A63a0UTP7mqWzeBCsRCjiZlGIiyKNGL0evG7yu3i98URb0uE0HtQIiQFSQjtjCGldObQfjR6UElaN25AisG05Z9JCwzi/tn1p+SdO830DVIWp2j0AO6He930yaE22lrvpaX727omHwQLcx9ujH4uyJSA9QbdRBOCg2HGZd0SFCBWNH6Aq0diby9u3EvXvSksXXRiEJxcVczlLExWk3ZxsgJWFuIyWHk63NZh3MYElle4caLESwoawKvVrwH9GJM+/HoyhD9HmIjIY1zWL4V/LxwhsOGuJtqrwM3E/nX9S4Tr6bTLNis1ZUU9Yq1gvB/7524t7wk3B7w38Xj/pKH03Ymc+8RkNz0qTvEC6ys6yAz0QDNiQeGxIwScOwNdinawqUUdxcfAyjL5WFCoWXeVDm01MnwbKZdDExMIDILzQA/Qg2xxjRDkXvlRHS147yCtF1YrXERJR0CmdNz7H0dzmgHTJ8hKcWISA32z/rbtAN3xQYNMgJWLE1hJtXXKBQuI0n+fM5zrHZk+BYtTHwRihJjeG9sb5RbtctVQWEh63E5uMCquISHzJ5OGc/4S0ydhccpiohcXVu5u0Zr4OYQIhSVkAl2QYCXNGFfDtY1MnycrxAlxkjU7DtOH+1pkALm2f6lMvETwuNiOXlHZk3iZbvDeD7V0yEUCva+6XOHc16pZRHqAXuWRhfKf8GdTFtPcsVW87RSTc2Sd5aT3HX99+wF69VNlJSjKywrobOGiVNv9MogNIUPQGlnkCFhHB6tBTwpbeMY4BAdAdPRscQgPkjw3HvLQ+mYfkUr4DBXs6l/hQIj0LwHSD7DTC8RofG0FB7eZnCXr3Tosh2O3lrW7GrvcmuhUA8xnvAt9Xke/I7+4oP8btdwPsOSvM7gktoDpmeIA2eJIyIzYwQWLfUhADf994YKDR/GzCFZH5ELh3+uWkELPgTrhS+UyEXPkgBIWIiav6JMxJ7hC2w+1yS2f9ERPWbOGSv1wUdAf9eMoQm5SghgljBomXgIMLw7DBUxYgyf3Kw7lQqGGcLA4ztcCaIYxIucC4noMRy/A1Sv961qDoXq5bvvWaelNGuFWWSyE6KF3OiwwWF7Ih9Jr/CA4SIEKT75E/IytH4aJj5wTp1TQY0ZmlBQEyeYwqCZmGCbNEP0/iowdBf2ZV7QAAAAASUVORK5CYII=;" parent="1" vertex="1">
          <mxGeometry x="203.18" y="545" width="53.64" height="30" as="geometry" />
        </mxCell>
        <mxCell id="K3JCWGEV4drO9uTMXzan-10" value="" style="shape=image;verticalLabelPosition=bottom;labelBackgroundColor=default;verticalAlign=top;aspect=fixed;imageAspect=0;image=data:image/png,iVBORw0KGgoAAAANSUhEUgAAAScAAAClCAYAAAAeVTsmAAAAAXNSR0IArs4c6QAAAARnQU1BAACxjwv8YQUAAAAJcEhZcwAADsMAAA7DAcdvqGQAACw6SURBVHhe7Z0JYFTltcfPJDPJTFZCAlQkLEIVULS4YUV9+MRaLfKUKmhp3SqttRYfbRVf+1prfVrB11p9aqm4W1wQN7RQK1TUQguCqFDABQTZBBKSTJaZZGYy7/t/97uTmcm9d/ZkMnN+bZx7b8Jk5st8/3vO+c45ny0oIIZhmCyjQD0yDMNkFSxOGaT1zVXqiGGYRGFxyiD+De+R5/U31BnDMInA4pRBisaNo7YrvqvOGIZJBBanDFJ4xJco4D5E/o+3qysMw8QLi1MGKRwwQD56/7FGPjIMEz8sThmk0+GQj74VK+UjwzDxw+KUYTDAgSWvaScMw8QNi1MGKfD51FEr+erq1THDMPHA4pRBAocOyUcMcnDfPnnMMEx8sDhlkMD+L6hTPHZSKfnq2XJimERgccoggc93U0FFjTy2NbjlI8Mw8cHilEF8b79NNqdTHnc2N8lHhmHig8UpgwSWPEfkEuJU4VJXGIaJFxanDIGs8NDguj1kKy5WJwzDxAOLU4ZoXfqKDITrFFRVqSOGYeKBxSlD+O/+PdmGDVJnrVTQr1IdMwwTDyxOGaB97TqyuZHj1DW89qFD1RHDMPHA4pQB2ub9LwUHDhFHyHLSQIcChmHih8UpzXR8uImCy1/VVukwvB4vOS6+VPsmwzBxw+KUZlrm/oKCg4epM6Kg10uF552rzhiGiRcWpzQiW/Kuep1ItUqRuOvIedaZ6oRhmHjhraHSRLCllRoG1FBw2Ch1ReDzkW3QQOq/5m11gWGYeGHLKU24v/cDFQTvIrhPWE0//ak6YxgmEVic0kDLgoep/aXnVRBcR1upK5k2VT4yDJMYLE4pgr3pOub8iAqHHaWuaAR3HSDXYw+qM4ZhEoVjTimAtAH3hFPJFhImpfXogOlwUPW2Tdo5wzAJw5ZTkkCYWqQwIQCOYewayuC+XVS++Gl1xjBMMrA4JQHKU2AxBaNcORDctZ+KbppLRcePU1cYhkkGdusSpO3FpdQyc4aKMUVpu8dLtiOP4NQBhkkDLE4J4P7lr6jj7nndY0ySTmE17aDqQ3VkK+tqlcIwTHKwOMVB0OejxhkzKbD8b6oNSrQ3rAlTvy1byT5iuLrGMEwqsDjFADuoNJ4xicgfiMpj0lHC9MFmsh89Ul1jGCZVOCBuAQLfTUeNMBcmYVGFLCYWJoZJKyxOJiDru3nSv2m1cmbCtK+OqnZ8ljFXDukKTXfNp5YnnlJXGCZ/YLfOAPfsG6lj4UMq8A39RilKmI4jybKljSr+tZEcNdXqYnrAxgjoP+77xc+pYPwpVPnCYm5Ux+QlLE5hoLNA/ZSpRFs/JltVhbhiYFh6vMKSKqL+69elbVXOV1dP7S+9Qu0P/oFs2zbLa67Fz5PrwinymGHyERYnhf+zndR02llEzmKTwLcAwtS/H/V/Z1VahAkxrbb7H9T2t5M7tbRS0azvUfmdd3I6ApP3cMxJgOLdw2PHEFVVmgtTQ5OWYLluTcrC0frsYqofPU7GtDrfXk22igHyumvZcqq4714WJoYR5L04tSx8lDwXnE+F4U3iohHCVDhujMz8toV3uUwAuIwIste5XOS5+npxpVPGtIIH95BjxsVU7d5PpWdP0n6YYZj8duuabppLvvvvCwt8dyfY0EgFJ55E/Ze/rK4kBhI43ff+HwV+8XMKwkKqKhdXxe8SLiKEqfTlpeTiHuMM0428Faemb11BvpeWCWE6QpxFrcYpIEyOc86myqefVFcSA1ZZx+wfKlHq2lQTxcEFk86gqucXsQvHMCbknTjJXt9fO5+C23cqK0YnUpwgIIWXTKGqpx5XV+IHMSzvVbOEZdSgyl26QNKm4/Y7qPKnP1ZXGIYxIq/ECUv27gkTLUpRNJIVJghf4w9+KFfftD5P+qaaXW5c+aq3qHjCqeo6wzBmGAdachCkCjTXqg0IXEXaowGyH9OsmQkLE7aFqh9QQ51/RXFweNcC8aVW+tCxgIWJYeIjL8QJwtQ4dozWHE6uthm/bV2YsJyfCMgo91w0VbOWIlxFPOencjVOrvRxfIlh4ibn3TqUgzSecJyyZsy1OBlXTrqJ536daN+BiIC3jhQmji8xTFLktDjpFlNMYUpiVQ5FuY3CRSvE1uMGuU8QJtdjT1DpZdPVFYZhEiFnxQlWTVPtELKZiEcItNYde2xCeUwoO2lFxwILYeL8JYZJjZwVJ5SH6Fs0mYLvV5RT9cZ31YXYQJhQdmJmjbEwMUx6yMmAOBIssUJmKUxY5m9pk0W88SJX/GIIE1w5FiaGSZ2cEydkZfuwNbgMUOt5Rt1BMmTlP+NfQZM5TKedqbmJhsK0nxy33sYxJoZJEznl1nUFwC2KeAXJuF6wxvwrhZVlsCqXTNyKYRhrcspyapn1fWXZWFhMDY1y08tEhAkJlgFpjUXmMOnIzO+nHlFnDMOkg5yxnFDPhtYnllZTEgFwUOeqEc+LAuHuwJ1z3jefymZdo64wDJMOcsZy8t3xG2U1mRPct4sqn3tWncUHGsNZUUCtLEwMkwFyQpwQa/Kvftt6da6hiRw3zE54CyfvvLuF1YTOAt1dRbiIhbffoc4YhkknOSFO3rffEf+1XnULug9Rydyb1Vl8oPQlKDccwDAZDJW7jlxf47QBhskEOSFOnRvWk21glTozQFhNCIInuo2T9x9rQv29zXAchZwnhmHSTU6IU2DPfnVkjLSavv0ddRY/ED25G4sVxebtVxiGSZ6cECeJvVAdRIONBEYltV24f/1Gy95PwN/kVkcMw6STnEglcP/yV+T746PGCZIIhH//Gqr49a/Uhfg56HJZ7sqCNALXsiW8a0qcIMu+7bU/k63IuAtpsMNLjrFjqOj4ceoKk8/khDghSbL1ossNc5GwouacfyeVXZm4W6eJk0W7FY+XCi+6kPrd+zt1gbFC761lvnjRKkuAKm9JbOGCyU1ywq1z/jssl1btJBq3h2zFMeJGJkiryRdQZwa4nOR/6A+yPQsTP7iJdH0NUl/iGIsPdrv6KSbfyQlxwkaXWI2TnQiiqXBRsDG5uJD9xPHqyBxMqLZ589UZkzj4COZO6JNJHznzqXDN/pFclYvG5nRS55ZN6ixBTvyKjJNYUlUpN+aEy8IwTPrIGXFCDhPiFYgxRSBcr46Fi9RJYthPOlG6hbFA2Yz7qqvVGcMw6SCn7OmKn8yRWdvdS01aZYlLopScMVH8N4blBIRb2blxi+wlxTBMesgpcULsqXTx87KRXAQVNarEJTHwfIWXzJCrcrFAQNc7+4cU2P+FusIwTCrkXCTSdeEUclx8aYSgoNtlxx8XqrPEKLnhetmvKR7g3jV/50p1xjBMKuScOIGKh/5AASkoyr2Tbte7SQWtsUOvbfRxWi+oWIjfg+4IsdqsMAwTm5wUJ1hKlaveinDv5JL/n55SZ4lRtuAB2QsqHlAq47n6ytirfAzDWJKT4gRg8cjVu12qKLiqnDrunpeUaMjninIVLamooeb5d6sThmGSIWfFCaAMwj7xJCUq4q0K0Wj90zPaNxOky1WMja2qH3mFEHLmOMMkT06LE6h8+UUV0O7URGPOjygYT/woCriK5S8vFZbYp+qKNYVwIx/mTQ8YJllydsffcDo+3ERuBLaHjdIKgW+7lcquu1Z9NzEab/wx+Z99XgpdLCBkNZ7YSZz5gl74a7oJRUMT2W/6T6r86Y/VhdRAblv7zp1ka3BTZ30dBZoaxUW/9k27nexDhhANGkjO0aOp8IgvadfzHIxZ4OBBCuz9omvM5DfEuIkxKxwwgGxDa6l4+HCyjxiufS9D5IU4gbYXl1LbzBmaQAnRqD5UF/eGmtHUD/uy6vNkbXgGsD/esuXcUkWRSXGCC+3f8B75Vq8m/4q/kX/ju+qv0/U3tlWUUFD8zyb+B4LuNvmIRFssmNjn3EBlV16RkFC1PPGU1pTQhIB4T6U3/SQtbWBi/a5gXQNVPPGIzM+Lh+gxw4p2F2rcKlyh8QIYP61qArHbUnLcejOVzphuKVToGuL5/QNUfPN/Eh04KG8ImBN1k86hmlUr1U91J2/ECaDvU8fd98sPabI9nkC4JWZJCr2kcpF0ixPu8t7XV1DHk0+qiSUmFCYTbjpxTtAuOoVV7ZYVBtgIo+LO/4lrkmvteqaSbaCwwgwIHmygwkumUNVTj6sryYONXX0vLTNuSe1tl3We1dus60iRJOx5bRl5Fy0iWrtGXCmV84HKxFcKY1Y063tUfuedpjd8eBxoLdR013yiDzeT88Yb5Nb+Vp5FzsecwoFI4IMC9cfKXTIlLQB3Qcftd3StBJoh/uC4IzHpBXsUNk4+j9xjx1D7rb+moLgbQ/Bk6xW42wlPMlAg/y2ex//kM1RfcURceXHOiadr2XQup+EXKgcCS55LKs4ZTQAu6uAaw98DHNO/KR+NaF+7jg6ffxE1HDWCvLNvJtvuvWrMjtCaNKY4Zr7nXqKGATXyxm1E8PBh+WhrayP7rGuoee5/kXPBQ5bjklfiBOQdbMzRcuXOfb0wM5MEd/eC8WOtkzPFHzzSVGbSQesF51Pgkx0UhAUWMbHS9HEWzwmhg5UXS6BgKRTHTDMppba/r1bHKYDPksO4HTVc1MKx4vNoQvOkCyi45V/ifR2lCVJSYmSBGLOgeG54FEYCBdcWOC/5pnTp+j32CDnPOtPSOs07cQLVb/xFKH4Fda56XZrlyZJIciaTPpzo3WWJsGUgFsJNxAIILNzQF7pWSCHpvg9hJMIqEJOt8YQJMa0exyWXSPfNDLhNvpeXqrPkkPEheWQ2ZVtli2MzEBuSrp/pv9fGTI5XimMGgYrOJ9RjbvojYlSxAup5FXMKB3/s5tohcrir3e64g4jRuGffSL5XloVM6wjEh7pwxDDqt+J1dSG/SVfMqVtbZjHOmAyd7jo59VDj6PjGeRQcfCQVHnGE7ISKvuXoUY7Gg4Htn5Dvyaflz1u2YRZgYhZ9/7uWcUN8lprEZ8n0fQlSXbmFNdKCSW/yO+Qij8XnWNuu/5JuY6Z18RBjJsbB8bXJoTErKBfWo6OAOlvb5Jj5t26hwLNLZM80/KzVmMm/4xWXU+Xd89SF5MhbcQKIOR0Wd5viG2YnPZBWEw4fbMecH3FPbEW6xEkXA7jmmFyofbTPvJycZ55BRcceG/cqLCas97IrYgaD41ndxcoT4jhmz4PnKF/1lqw2SAZttfmaLnEJRwiN7ejR1H/5y+pCdyBE9QPEeMlVuNbUxuza67STGGNWuXtPwntFhmMhf7kPzMr+H2ym9vvvkwHDZJBbTmGSGJm8YuKUTjMPUjLJIRsLXnwpOf/nNqra8RlVb3xXCpos0o5zkgHEPvpv3ypUE33irVyWUrlrjBXOq6+yLI1CqkL7n4WFnST+99+TK5GGtLRR4TlnqRNjMC5o/+NccE/qY4YVQSlMFmMm5kQq7xfktTgBiAuKhLGsmSxFM6YJX6NDnSmEj154/oVJ7ZfHxKby6SepbNY1KSdPYmKWLV4k7vRRPcDCwNJ9R4yJhuCu7iIZIms771cnidPx9jumIoJguOzaGgMsBmEXopTHTAhT+eKnKWA1Zk4n+V55VZ0lR96LE8Ddo/TlpTJ+lAzB4u7xJpTMlP+WNz7oC0hXa8Lp0j0yxOWkwJLX1IkxsMKlu2r2HHKqtZoutVshA/LISTJ1o1qpaFzP7vWHwHbRRGGtmY5ZEQWWszilBdd551Lh6ROTWr3r/OKAOtKAv+2874GYqxFM9uCcOdPSLYMAxFq1s197tfVzCFfH89fEP1++rdvUkRHajtapxHaSxf6db1u8X01arMfUGhanMEovm07BVk/CrXaRZKev1iEIDt8eLgfTd3Acf5y1Wwbao1z3KFxfO9fyOZC+4v/DQ+osfnxbtqq4pgENzZbJl5mkaPxXYo6Z32uV/2UNi1MUJdOmUuBQ9y2mzIgIpGO1adzYtJQqJMKmvU20aN1uunflx/SrP38U+sI1fI+JjX3oUHWUPFoOD+JCZoHiApkXl2hlQmDNahnDMQLxJsdEbMTR89gGD1ZHmYHFyQA9USwePD//hayrkhbTuDE9ltO0q76NrnpmE7l++Xc69Y+b6NrXP6db/nmI5r1fR/M2H5Zf1765h059eiu57lojxQr/hjGmoLxcHaVG0U03SGvGFGEBeRMsafIuFNaWLDQ3ojWuYHgmsFdWqKPM0KfECZNr+eYD0kLAxDxzwQY56XCttV21wuhBEJ9Cz3BkBzvOObvHhAnW0Ipt9TTrlMG07vvj5NeKy0fToguG012nDaCTK8UH2a/dvcvtQSovKqR5Wxpo9IMbafYLW+R1Jopis8mfGMXfuEAmKpqBFbeOx+K3rGFlaZPUaKp2agmnvRBv6gmyNgkTYvP+7iZav6uelnzSTOv3eYgcNjp5gJOuO3EgnTGymoZVl6if7h3qBw2lgPggopwi2zoPfNHkoYf+sZN+s+Ewlbvs6ipRc0CIVaGN3r1yXI+PX7qSMDMBgt31FRWmry2eREydgy4XFZq9RwGeC7lG8SzpWyZfivHq7a4XdeK9Wo1ZKomYWWU5wSKAVQSLqGb+Wpq85CO6Zc0h+sjTQQ9PGUZ1N0+gd647iWaeWtvrwoT2KxCm8sXPZ2VLlC9VuuiXXx9D264br65oQJjA6AUb8zYehRUkLHpALLG0j7ih59Xl4jvxJyNa4Zz1PZnnZk4ped96Wx1b41+1UrVI6R7HksW+PdQrLDRmwpLTxwzCieTSTNHrlhMmyAvvf0HzPqwX4y9eil3ppXBLZo2uop9MGt7rQhSNnsJfsXZ1nzCpYUUd/8iH6qyL5lY/fTb7RClkPUFPWk6YRL7Nm6njo4/J9vku6tyyTbjgG8R3tKVtfMow3bVH1dMIHQ5MSMRy6lb7F40QLvvEr8pE0lhoVphxLVsirykezMasE3Et8f1weQyNm9l7FKRqOfWKOMFle3b9frphzV4pQuXFXW0gmj1+KUo/mzyixyZNIqCuq33JS0m3+e0tEJeb9tp2GX/SkS6ePUgH53xVXcksmRYnPH/riy+Q757/owJ3XZfoOIu1H5DpHrokJUYiQgArA3Vspu9TIJ8vRsG5ZbGvcEODtUdadpKMBwhS6wsvkv/u36tYWdiY2cVnJdSiJbkx6zNuHQLaCMjCZbvh73uki1Hu7GoBCmF68T9G0X3fHJuVwgQw0D0pTOkK9J9/3CBxE+gaa4Dxb/YG6cWN4ibRh4EoNUybLoUPwoR8Ikxo9GSS1hBEKdQ1IvMfeQhY7K3EYvd46lizljpN8psggM7LLldniRMas7FjyHf3PbK8BmIaMWZSODFePSoTIXrkt2KCYXUNcY5ndzVTeamdyh3iV9vEXSxYIO/g+MJKEyZRPgLXa/Wn9TI3CSuQA+/5B13/NNyQ9HHPxCHU7IuKXQg3+p61iSWdZhNNN82VotT5wYfa5JIbT+gf63g+3vp4RI1LisTT48m/DHEuc9B+GEJriLAMi06foE4SA/FSOWYbNqYwZvpX5si4W4cJN/mZbcJMLJQuBMTICIjTrKMqpNWUi0B8DrV0kFtYhzsPt9Enh9poa72X3qzzSouRCpRV0ylcLZedVs4YTeOONI+BJAPie6c++a8INxog9oTFhtLirlW9TIC7tVtMCrOeRIm4dQjONp52JgW9XjW5TID7gxKKUFN+MxA/wY3R+POZaHwnvh5P+6nGY5xhHevf4/Uk2h8Kz+k+Y5LMyeupMcvamBMm5Ijfirt/ubCU1CqRFfoy928mDKZTh1ekfXJmAliFzV6fFJ49DV463NZBdc0eahDu0pb6ZlpV76PmNnGHgfgg4I9HBP31Y4F0r8R7p44APXzuULkamQnwWuFSw3INp7k9QOuuODbj450ucYIwoRc2cnxMi2HFcyGGYp94Ftm+fp5MVHRUVxO2NuoU/wYJhOHxnlhxokTFCcTT46li7TrDpF/Pq69R6/SrxOsxCDgjoD59WkI9yDBm9WLMCuMYs4Lxp1DhtItkMTHSHUzHLI70i6wVJ30ySKspDnHSka4HXpZPiFVZAZ1dXULHDiyiSkch1fYvJZfDThVO8SUsjAqng4rtiF1pg5bs3V+P7ehCAwvH7fWTx+enBiEuLV5NcA42tdAmN9FHbUKUYPEA3erRwXmY8IQjRQhAnPAecS7e7oxRFfTAtDEZt15ct6/uLk5CFF+cMjLjLnU6xAkT4vCQkZYN4jApioS7V/qD6+JuD5IJcWpZ+Ch5//tWUysFFozZHooN37mKOt9eHRYr6wIWV+nLz8hi9Xipx3ZmMsDds2OW1at1mPS/ffMTun+LW96h9YmbiFiB0KRWmc8STHCA59SPjcD3o38dfjzWv9HR0xsEupVj9fojBCj0Jc7F05xc7aTxA1w0sp+djh5USUOqnHRUTWnGRQlIS/b+9yKSMgH+LisuPYYmjkruQxQvEKdUV+sQY0KLXS0W092dwIQws0asyIQ4YSUMAWfT92uy4pbOhFAgt0T74yNKJNUHMQw8XzJdOvu8OIWDmMe6nW565/NGem6P8GXFHVuiBEsXhJjChUC6jkkMK1OEhAeEi488F69dWXpjhAjV9iuhwZVFUoAGlBX1+gqkjP89/1H3mJOwANdddVzWu3Uhd85iMriS3MQ0E+IE6kcfq46MP6dGExh5dNhhxjDLPIEcKRBP7Aq9zBKxwnRySpyigVW1o641Iki8091B25s6aH1ju+byhKNbQLYo8Qq3cgSxxC1CYHRCAiMe8c9xql9TlJdowjOo1CEtH7iYg8qd0r3MBvGJBbLvb3nvcLfxgTh5fp75yvZULaeWBQ+T99bbjN0kYW3E6qNtRabEqel/fyeX6k1dOwMXDRtQBl5+1dSlK1n0qOyeEQ+WriXGbNBA6r8mvmz1aHJanOIBrki7P0hur0+K2IFmL3l8nSROQ3Ggw94AuYUVhuv72rryglD2EmFZKYvrGFcRDS6xk8tRQBVFhdTfWUhVThuVOV2E0FX/kqJQTAuig3hWT7hdmWbg79Z2c0lxPmNIKT1+eeY7KaZqOR0+/Sy5gaZR3AST1vXYg7InVzJkSpyQSGm5O7RBcDtWvVoirwMbaWK/OkOhQ8xr/p2ydW8y5L04MelBZoi/8mn3eJMQ/BUzRmc83gRSFicxabFxo5GLhImQTKxJJ1PiBKzEBrGA4K4DoZQC1Kw1Tfo3U5eu4KTxVPXiYnUhNtqY6c8VGW8KQDxS2BEm0+LUswEbpte48o0d3YVJWE0I0PeEMKUKYiea3Wv+kU1XT6Z0g1UwCK8xeD+tMngOvEteoMKBQ+RxNEjqLP72t9VZbCAeYdFZQeTY4cwmxCtbYXHKAxBrkrlW0Qh3+PnLezbp1eBVxEWBzxfzw9rZbNHkrRdB5wCrHk9IZtQ7qgbuv8/QBdNoJdfXzlHHsYlnPIIpbPSZaVicchyskKJDppE7t2jK8B4P4mfuA1dK/k8/U8eJk0qv61jEWj1ESxT/hg2RLZ+jES4detMn4lYicdIaMWbKYkuGTI4Z6HPihAA5Ex9YDT31qX8Z5jXN/UoNTRt/pLqS/RTUVJNVCbRtcA15Fz6qzhIDKQrNUy8mbZvtzFBk1eNJWEr+FX+j9kWLKGjq0u2homuuUmfxgViPlaWKMfM9/Ig6Swy42XLMkHGeIfqEOCE/B90MXHdYV3EzkYx48N2IFikAwjTr6H70q28co670LMm6dSib0ILEJs8gvt+56nWZI5QIKBNB7pRcBczgdHB8Y4plITCEy/fKMhOXDu+5NKn8Lfv4U2TKgCFizNBmOtHt0PDzyJ0K7t1vuHKaLrJanOCSoDofHTEXbmmQq0rZnkuULaCbaHSCKlw5CFNvFlen8oGTWyBF76wcBlaNPBecH9fGlVg5bJg2nVqnX6qtNmVwkgHnxNPFf62KaAUmsaZgg5sct/9MnSVG4VQhii3mvxfvvfWiqdYupUIfM4/4eTlmprGx9JC14oQg7qmPbpYTTL/794VVpd4GrhyEaX1z5N0SnQfunzS017s+JGs5AWweEBDujRWYNMgrQplLtEjBfYOlhNyfrpYhmXPlwkGsCNvTm7p2VrjrqGzmt9RJYriEWKPxnhUYM2zHj+RPszGDKCENBGNmmgqSZrIyzwnNz2Yu26nFSvSeTz1U/5Up0GhvT4Mno68fwjTigcgeULKIusBG6741pte7PMTKc7IqhNWpG1RrWlcXgRABxGkABDH00xU1WlBZWkoR3yEkcpq1nU0lz0nHcrMCM8T7KDhrYkp7IdaPHqe5drGsQ7MxQ2sU9DGXllJiY5ZzSZihynm9hk65JxCoh8+pzVhLkVTRezahdcrHB5poe6Ofnv28SVvGx1tx2GQ3ynevOCHtfdFlr6Y/bRGfG/E7VN8sWEuzxlZlTY8sy7azgngylrVWIsoVSxdi4mKzS9TleS77jmGpRzrEKVZtoBH4vckU5Yaj9TRXrlhSqHkYcUPoJNuuHVQsxgz99LV2vuHf1157TomTWUM0HQgUat/mjqum4weX0UlDq6imrChj5SWwRtBGRS+hCe/ZBPE50OqjpQc8WhEzavw6tWZx0fV7smREtwKFaGAZP12rZdLS/Muu0JjBWiovIlo5fWxW9cRCsLpduBmm4oQ6s8WPk+vCKeqKMe7ZN1LHwkWJWSAm6I3XKpe/SvYRw6npW1eQf/U/usVT0iFOIFaPpwhSrH0LJ+1j5nRS5Rt/IfvRI03bu+ScOMH9weaP0T2HoglN/oCu6kQn9yuWNXMozAV6zZwZqMsD0bV5qMlDb+1Q4S+EBb9Pr0lD4XFYsXHMLgph6LVtCE4jO/vBC0elJCBYxVy4rUETRAi3vYAWTa7NyjSBlieeIu91c0wnSCJWgjbZHhLPZVzOEpMGrbGa49bbqPKWm9VF80LddIlTrB5P4eB3JtsxwIiUx0y5fch4D98OzWrMcs6tQw9tbKsdnZ8TDxEWiy4uyqIJPYYTJjIgEaFJBfk6YW21B2nWCf0Tdr0g4qc8sUmLKWEHGzFWC84ektW5SwhS+598xnQLpkQ/zHBX2q74rhQZuX9aFcpXLCadnFxYzm8lxw2zqezHc7o1VtPdxmhwCxyQBnHSezwhjmNNq8whqt6+TZ2nBzlmN/5YjjW20de2ObcYM7i8WO1Dz/JZ36OSOXOkhRmO7jYakXPiBFCoeuVfd0oLg4oS66SZjUgxQqM85fZdf0w/mjCsH5315eqEXVLZ+uQtVOfbaOqwMpp9+pA+sVBQP3K0dmDo0oixaWim6gOfq/P4wTJ4+5+XkW/xC3LSdVEqnrU1NPWQYV188TRZAmImMmj01vHeRnUWSSpxn3AwmTuLrN26gg6f1lo4yYkdi9CY/fHRUGmN7oOES1XBpPOo6LJvypVSs9eSqTHLWnHSQQLmcx8coIWfNGquFSwd9ZWtghXhcuJYiCs2b5h0VKWMkSUbDJfxuMc3S3FDn/VvHFfTZ/K+urpCmrgUwqpJtC+2EZgogT17KXDwIPnb2uS14uHDu93tmS6Q7R3cty+izq5w4MBeH7OsF6dw4Mps+LyBPtzXQit3t9D6+rCcEQhVCrGgZAiJECwi+QjxJJpaWyY7YcIyGl9bkbKAICj/8N93yOMZJ9f2yURUGWuZfbNFvCnxvthMbtOnxMkITFx009RX0dBNEwFurKIhuC2TEfV2wEZAwGKNQHScSlhCJ5c7Qr3A0RHzywPL+kQ3zN6iHg32LTKK4Y7F2gGXyS/6vDglAoQM6KkBAOkB8hGxrSjQCVM+hu3wkgsdMXsaBJk90y81zyxGk7krLk/ZpWNyi7wSJ6bn0XYSOUK5c3B/u8ebYDX127KV40JMBAaRSYZJH43XzJJbb3etBUXh0foUsTAx0bA4MRmj6a755FvyXFj+kYHVdHAPVcy/S50xTBcsTkxGkJtf3nar6sFk/DGDO+dc8FDcO8wy+UWfFScEtxet2x0KcjPZAToPoH5M7sprUWiK+iy4c8luS8TkPn1OnJDrdNUzm6hm/lpau7uZV8+yCBTNyk0zd++1rB2DMNnHjU2pDQiT+/QpcULNHYqC5VbmzkI64UvZuRVQvlL22/naB8oiVwnJloUTv0r9VryurjCMMX0mlQDW0nO7mmU/JL2/E/jwu8dnVeIj3Mz3dzfR+l31VFPuytreU5kCPZsaJ5zafVNIFJDu20WO2+8w3TSTYcLpE+KE+rrJz22j8hIhSmHCBNAmZO7x1XTuMTX0ldrKHnHzIEB1sqmcR26PvvtwK2082E7Lvmih5pZOIrsQULt4nYFO2cYl1bYofQ2t4+MMLeak2mzYJ55FZQ8+KPv/MEw89AlxemT1brrh73uo3BEpTOE0o0TFF5R9oI4psdPIyiKqKCqUPZ2A3tepzOkip/A6XFHPhV5OAAnjLV6P7PUU3edJlsLoxbw6qOWDEAlCtXyqqZwOmsvNGFVBd10wKm/KW2QawW23yjYbxTNnpq2in8kf+oQ4yWr8RzfHbECnE9HTKZzoGjkzwoqHdQyLiKNEyAq9fxP2i7tp8si8COSjD1Cq/Y+Y/KXPxJzCOz72ZWRzuNaAbDA367Qj88rdY5hEiO+2nwWgU+Rdpw2QLpKpZZTF4DXLNrodnTR1VDlNqC2XXQwYhjGmz1hOOshz+u2qnXKTTSoS2pqlTeekgMKNRK8newHNPa5/0p0vGSYf6XPipIMVs9e3HKDnNtXR0l0tXStkgp4Wq5AlpwfLhWDOGF5O547sR2eMrE77NlAMkw/0WXGKBukG2w600TufN2pJmnqDOQS39QC3ekxWvELWEMCj/CI6eYCTzqktC21VxWLEMKnTo+Kk5wdt2d9M+5o6aHdjG+10d9DwiqK0T2z8LnTIRBO5nYfbIvaZk9s/iS8ZA4pjBQ9BeD09Aa/1ywNKaHj/EhpS5WIhYpgMkVFxQgrAup1uzZrZ2UzkEWZGsXB5jqqQLs/xR1bQUTWlWRGDgZhFw7Ehhuk90ipOCFav2FZPj286SOsPeYUbJS4KPUJ+EnYLmTya4y+9AUp/Hpg2hsWW6VOkLE6wOJ5dv5/+a90eam7TVqZkbKcjIC2kn5w1lHN5ehlk2OOG8c51J6krDJP9JC1OXzR56M4Vn8nESIhROcpDVLY0Eg3XfTu79unPZ2Y8+QEt/bSZPL8+Q11hmOxHU5MEwZ14xH3v0cJPm2SwuLy4sEuY2gO07doTWJiyBLSZQarF3AkD1BWG6RskbDnJu/DeVk2QjLB10sE5X1UnTG8R2s690SdLZZBhzzB9iYTE6dd/2Uq/eb+ByotMhEkAy2nR14fRtPFHqitMT4Fcrzc+qqN5yJ5Hnlcn0cPnDc27nlJMbhC3OCHwjda48XQGaPb46eRqJ901eThNHFWtrjLpBH8PNLVD4ulftx/WsuThWWMxwh+kWWOr6DdTjuYVOqbPErc4IU1g9IKNhg3fjJDZ1Kgr6wzS1Noymjq6f1blNfUV9GRSbLf+8YGm7k3t9Ox3IMZ71ugq+tnkEbwtOtPnScitk/Gmfa2Wbp0REUWw4v+wvi4bVk4j+9np6EGVNKTKmZeihRVPbIuOjppur19mze9tbqEdDX5NgJCaEV5qU6jdFFB+Ez6msFKvO3EgXXTCEUmNIYLmV59WyzloTFaRcEAcH+R579XJjgBWnSljEVEsqyOuYfXv7BonjRETrrZfCVUJS21QuZMqxHW0GCl3OrJGxPSs8mavT4qMWzyiXAZC4/H5qUGIC7pqNvkC9MXhNqr32+lNYYE2t4v3rr9/AAGyRVpB4fV/obECGC9fUNbzXTVuYEqJrRDHS5/ZQuMqiB78FudAMdlFwuIEuiVeYlLZhVglWVAbTWgyysLasGP9+cXkJIdNbnZwjKsooiVvdDveaPQ2vNGgLS9Aa16gt+cFqMUDH3k6uoQFryVcNEC4iwVwrq5FjE0cHTQjrE0B3Onrj05f25V7V35Mt7x1kMqrCnl1lclKkhKncBCL2vB5A63a0UTP7mqWzeBCsRCjiZlGIiyKNGL0evG7yu3i98URb0uE0HtQIiQFSQjtjCGldObQfjR6UElaN25AisG05Z9JCwzi/tn1p+SdO830DVIWp2j0AO6He930yaE22lrvpaX727omHwQLcx9ujH4uyJSA9QbdRBOCg2HGZd0SFCBWNH6Aq0diby9u3EvXvSksXXRiEJxcVczlLExWk3ZxsgJWFuIyWHk63NZh3MYElle4caLESwoawKvVrwH9GJM+/HoyhD9HmIjIY1zWL4V/LxwhsOGuJtqrwM3E/nX9S4Tr6bTLNis1ZUU9Yq1gvB/7524t7wk3B7w38Xj/pKH03Ymc+8RkNz0qTvEC6ys6yAz0QDNiQeGxIwScOwNdinawqUUdxcfAyjL5WFCoWXeVDm01MnwbKZdDExMIDILzQA/Qg2xxjRDkXvlRHS147yCtF1YrXERJR0CmdNz7H0dzmgHTJ8hKcWISA32z/rbtAN3xQYNMgJWLE1hJtXXKBQuI0n+fM5zrHZk+BYtTHwRihJjeG9sb5RbtctVQWEh63E5uMCquISHzJ5OGc/4S0ydhccpiohcXVu5u0Zr4OYQIhSVkAl2QYCXNGFfDtY1MnycrxAlxkjU7DtOH+1pkALm2f6lMvETwuNiOXlHZk3iZbvDeD7V0yEUCva+6XOHc16pZRHqAXuWRhfKf8GdTFtPcsVW87RSTc2Sd5aT3HX99+wF69VNlJSjKywrobOGiVNv9MogNIUPQGlnkCFhHB6tBTwpbeMY4BAdAdPRscQgPkjw3HvLQ+mYfkUr4DBXs6l/hQIj0LwHSD7DTC8RofG0FB7eZnCXr3Tosh2O3lrW7GrvcmuhUA8xnvAt9Xke/I7+4oP8btdwPsOSvM7gktoDpmeIA2eJIyIzYwQWLfUhADf994YKDR/GzCFZH5ELh3+uWkELPgTrhS+UyEXPkgBIWIiav6JMxJ7hC2w+1yS2f9ERPWbOGSv1wUdAf9eMoQm5SghgljBomXgIMLw7DBUxYgyf3Kw7lQqGGcLA4ztcCaIYxIucC4noMRy/A1Sv961qDoXq5bvvWaelNGuFWWSyE6KF3OiwwWF7Ih9Jr/CA4SIEKT75E/IytH4aJj5wTp1TQY0ZmlBQEyeYwqCZmGCbNEP0/iowdBf2ZV7QAAAAASUVORK5CYII=;" parent="1" vertex="1">
          <mxGeometry x="593.1800000000001" y="875" width="53.64" height="30" as="geometry" />
        </mxCell>
        <mxCell id="K3JCWGEV4drO9uTMXzan-11" value="" style="shape=image;verticalLabelPosition=bottom;labelBackgroundColor=default;verticalAlign=top;aspect=fixed;imageAspect=0;image=data:image/png,iVBORw0KGgoAAAANSUhEUgAAAScAAAClCAYAAAAeVTsmAAAAAXNSR0IArs4c6QAAAARnQU1BAACxjwv8YQUAAAAJcEhZcwAADsMAAA7DAcdvqGQAACw6SURBVHhe7Z0JYFTltcfPJDPJTFZCAlQkLEIVULS4YUV9+MRaLfKUKmhp3SqttRYfbRVf+1prfVrB11p9aqm4W1wQN7RQK1TUQguCqFDABQTZBBKSTJaZZGYy7/t/97uTmcm9d/ZkMnN+bZx7b8Jk5st8/3vO+c45ny0oIIZhmCyjQD0yDMNkFSxOGaT1zVXqiGGYRGFxyiD+De+R5/U31BnDMInA4pRBisaNo7YrvqvOGIZJBBanDFJ4xJco4D5E/o+3qysMw8QLi1MGKRwwQD56/7FGPjIMEz8sThmk0+GQj74VK+UjwzDxw+KUYTDAgSWvaScMw8QNi1MGKfD51FEr+erq1THDMPHA4pRBAocOyUcMcnDfPnnMMEx8sDhlkMD+L6hTPHZSKfnq2XJimERgccoggc93U0FFjTy2NbjlI8Mw8cHilEF8b79NNqdTHnc2N8lHhmHig8UpgwSWPEfkEuJU4VJXGIaJFxanDIGs8NDguj1kKy5WJwzDxAOLU4ZoXfqKDITrFFRVqSOGYeKBxSlD+O/+PdmGDVJnrVTQr1IdMwwTDyxOGaB97TqyuZHj1DW89qFD1RHDMPHA4pQB2ub9LwUHDhFHyHLSQIcChmHih8UpzXR8uImCy1/VVukwvB4vOS6+VPsmwzBxw+KUZlrm/oKCg4epM6Kg10uF552rzhiGiRcWpzQiW/Kuep1ItUqRuOvIedaZ6oRhmHjhraHSRLCllRoG1FBw2Ch1ReDzkW3QQOq/5m11gWGYeGHLKU24v/cDFQTvIrhPWE0//ak6YxgmEVic0kDLgoep/aXnVRBcR1upK5k2VT4yDJMYLE4pgr3pOub8iAqHHaWuaAR3HSDXYw+qM4ZhEoVjTimAtAH3hFPJFhImpfXogOlwUPW2Tdo5wzAJw5ZTkkCYWqQwIQCOYewayuC+XVS++Gl1xjBMMrA4JQHKU2AxBaNcORDctZ+KbppLRcePU1cYhkkGdusSpO3FpdQyc4aKMUVpu8dLtiOP4NQBhkkDLE4J4P7lr6jj7nndY0ySTmE17aDqQ3VkK+tqlcIwTHKwOMVB0OejxhkzKbD8b6oNSrQ3rAlTvy1byT5iuLrGMEwqsDjFADuoNJ4xicgfiMpj0lHC9MFmsh89Ul1jGCZVOCBuAQLfTUeNMBcmYVGFLCYWJoZJKyxOJiDru3nSv2m1cmbCtK+OqnZ8ljFXDukKTXfNp5YnnlJXGCZ/YLfOAPfsG6lj4UMq8A39RilKmI4jybKljSr+tZEcNdXqYnrAxgjoP+77xc+pYPwpVPnCYm5Ux+QlLE5hoLNA/ZSpRFs/JltVhbhiYFh6vMKSKqL+69elbVXOV1dP7S+9Qu0P/oFs2zbLa67Fz5PrwinymGHyERYnhf+zndR02llEzmKTwLcAwtS/H/V/Z1VahAkxrbb7H9T2t5M7tbRS0azvUfmdd3I6ApP3cMxJgOLdw2PHEFVVmgtTQ5OWYLluTcrC0frsYqofPU7GtDrfXk22igHyumvZcqq4714WJoYR5L04tSx8lDwXnE+F4U3iohHCVDhujMz8toV3uUwAuIwIste5XOS5+npxpVPGtIIH95BjxsVU7d5PpWdP0n6YYZj8duuabppLvvvvCwt8dyfY0EgFJ55E/Ze/rK4kBhI43ff+HwV+8XMKwkKqKhdXxe8SLiKEqfTlpeTiHuMM0428Faemb11BvpeWCWE6QpxFrcYpIEyOc86myqefVFcSA1ZZx+wfKlHq2lQTxcEFk86gqucXsQvHMCbknTjJXt9fO5+C23cqK0YnUpwgIIWXTKGqpx5XV+IHMSzvVbOEZdSgyl26QNKm4/Y7qPKnP1ZXGIYxIq/ECUv27gkTLUpRNJIVJghf4w9+KFfftD5P+qaaXW5c+aq3qHjCqeo6wzBmGAdachCkCjTXqg0IXEXaowGyH9OsmQkLE7aFqh9QQ51/RXFweNcC8aVW+tCxgIWJYeIjL8QJwtQ4dozWHE6uthm/bV2YsJyfCMgo91w0VbOWIlxFPOencjVOrvRxfIlh4ibn3TqUgzSecJyyZsy1OBlXTrqJ536daN+BiIC3jhQmji8xTFLktDjpFlNMYUpiVQ5FuY3CRSvE1uMGuU8QJtdjT1DpZdPVFYZhEiFnxQlWTVPtELKZiEcItNYde2xCeUwoO2lFxwILYeL8JYZJjZwVJ5SH6Fs0mYLvV5RT9cZ31YXYQJhQdmJmjbEwMUx6yMmAOBIssUJmKUxY5m9pk0W88SJX/GIIE1w5FiaGSZ2cEydkZfuwNbgMUOt5Rt1BMmTlP+NfQZM5TKedqbmJhsK0nxy33sYxJoZJEznl1nUFwC2KeAXJuF6wxvwrhZVlsCqXTNyKYRhrcspyapn1fWXZWFhMDY1y08tEhAkJlgFpjUXmMOnIzO+nHlFnDMOkg5yxnFDPhtYnllZTEgFwUOeqEc+LAuHuwJ1z3jefymZdo64wDJMOcsZy8t3xG2U1mRPct4sqn3tWncUHGsNZUUCtLEwMkwFyQpwQa/Kvftt6da6hiRw3zE54CyfvvLuF1YTOAt1dRbiIhbffoc4YhkknOSFO3rffEf+1XnULug9Rydyb1Vl8oPQlKDccwDAZDJW7jlxf47QBhskEOSFOnRvWk21glTozQFhNCIInuo2T9x9rQv29zXAchZwnhmHSTU6IU2DPfnVkjLSavv0ddRY/ED25G4sVxebtVxiGSZ6cECeJvVAdRIONBEYltV24f/1Gy95PwN/kVkcMw6STnEglcP/yV+T746PGCZIIhH//Gqr49a/Uhfg56HJZ7sqCNALXsiW8a0qcIMu+7bU/k63IuAtpsMNLjrFjqOj4ceoKk8/khDghSbL1ossNc5GwouacfyeVXZm4W6eJk0W7FY+XCi+6kPrd+zt1gbFC761lvnjRKkuAKm9JbOGCyU1ywq1z/jssl1btJBq3h2zFMeJGJkiryRdQZwa4nOR/6A+yPQsTP7iJdH0NUl/iGIsPdrv6KSbfyQlxwkaXWI2TnQiiqXBRsDG5uJD9xPHqyBxMqLZ589UZkzj4COZO6JNJHznzqXDN/pFclYvG5nRS55ZN6ixBTvyKjJNYUlUpN+aEy8IwTPrIGXFCDhPiFYgxRSBcr46Fi9RJYthPOlG6hbFA2Yz7qqvVGcMw6SCn7OmKn8yRWdvdS01aZYlLopScMVH8N4blBIRb2blxi+wlxTBMesgpcULsqXTx87KRXAQVNarEJTHwfIWXzJCrcrFAQNc7+4cU2P+FusIwTCrkXCTSdeEUclx8aYSgoNtlxx8XqrPEKLnhetmvKR7g3jV/50p1xjBMKuScOIGKh/5AASkoyr2Tbte7SQWtsUOvbfRxWi+oWIjfg+4IsdqsMAwTm5wUJ1hKlaveinDv5JL/n55SZ4lRtuAB2QsqHlAq47n6ytirfAzDWJKT4gRg8cjVu12qKLiqnDrunpeUaMjninIVLamooeb5d6sThmGSIWfFCaAMwj7xJCUq4q0K0Wj90zPaNxOky1WMja2qH3mFEHLmOMMkT06LE6h8+UUV0O7URGPOjygYT/woCriK5S8vFZbYp+qKNYVwIx/mTQ8YJllydsffcDo+3ERuBLaHjdIKgW+7lcquu1Z9NzEab/wx+Z99XgpdLCBkNZ7YSZz5gl74a7oJRUMT2W/6T6r86Y/VhdRAblv7zp1ka3BTZ30dBZoaxUW/9k27nexDhhANGkjO0aOp8IgvadfzHIxZ4OBBCuz9omvM5DfEuIkxKxwwgGxDa6l4+HCyjxiufS9D5IU4gbYXl1LbzBmaQAnRqD5UF/eGmtHUD/uy6vNkbXgGsD/esuXcUkWRSXGCC+3f8B75Vq8m/4q/kX/ju+qv0/U3tlWUUFD8zyb+B4LuNvmIRFssmNjn3EBlV16RkFC1PPGU1pTQhIB4T6U3/SQtbWBi/a5gXQNVPPGIzM+Lh+gxw4p2F2rcKlyh8QIYP61qArHbUnLcejOVzphuKVToGuL5/QNUfPN/Eh04KG8ImBN1k86hmlUr1U91J2/ECaDvU8fd98sPabI9nkC4JWZJCr2kcpF0ixPu8t7XV1DHk0+qiSUmFCYTbjpxTtAuOoVV7ZYVBtgIo+LO/4lrkmvteqaSbaCwwgwIHmygwkumUNVTj6sryYONXX0vLTNuSe1tl3We1dus60iRJOx5bRl5Fy0iWrtGXCmV84HKxFcKY1Y063tUfuedpjd8eBxoLdR013yiDzeT88Yb5Nb+Vp5FzsecwoFI4IMC9cfKXTIlLQB3Qcftd3StBJoh/uC4IzHpBXsUNk4+j9xjx1D7rb+moLgbQ/Bk6xW42wlPMlAg/y2ex//kM1RfcURceXHOiadr2XQup+EXKgcCS55LKs4ZTQAu6uAaw98DHNO/KR+NaF+7jg6ffxE1HDWCvLNvJtvuvWrMjtCaNKY4Zr7nXqKGATXyxm1E8PBh+WhrayP7rGuoee5/kXPBQ5bjklfiBOQdbMzRcuXOfb0wM5MEd/eC8WOtkzPFHzzSVGbSQesF51Pgkx0UhAUWMbHS9HEWzwmhg5UXS6BgKRTHTDMppba/r1bHKYDPksO4HTVc1MKx4vNoQvOkCyi45V/ifR2lCVJSYmSBGLOgeG54FEYCBdcWOC/5pnTp+j32CDnPOtPSOs07cQLVb/xFKH4Fda56XZrlyZJIciaTPpzo3WWJsGUgFsJNxAIILNzQF7pWSCHpvg9hJMIqEJOt8YQJMa0exyWXSPfNDLhNvpeXqrPkkPEheWQ2ZVtli2MzEBuSrp/pv9fGTI5XimMGgYrOJ9RjbvojYlSxAup5FXMKB3/s5tohcrir3e64g4jRuGffSL5XloVM6wjEh7pwxDDqt+J1dSG/SVfMqVtbZjHOmAyd7jo59VDj6PjGeRQcfCQVHnGE7ISKvuXoUY7Gg4Htn5Dvyaflz1u2YRZgYhZ9/7uWcUN8lprEZ8n0fQlSXbmFNdKCSW/yO+Qij8XnWNuu/5JuY6Z18RBjJsbB8bXJoTErKBfWo6OAOlvb5Jj5t26hwLNLZM80/KzVmMm/4xWXU+Xd89SF5MhbcQKIOR0Wd5viG2YnPZBWEw4fbMecH3FPbEW6xEkXA7jmmFyofbTPvJycZ55BRcceG/cqLCas97IrYgaD41ndxcoT4jhmz4PnKF/1lqw2SAZttfmaLnEJRwiN7ejR1H/5y+pCdyBE9QPEeMlVuNbUxuza67STGGNWuXtPwntFhmMhf7kPzMr+H2ym9vvvkwHDZJBbTmGSGJm8YuKUTjMPUjLJIRsLXnwpOf/nNqra8RlVb3xXCpos0o5zkgHEPvpv3ypUE33irVyWUrlrjBXOq6+yLI1CqkL7n4WFnST+99+TK5GGtLRR4TlnqRNjMC5o/+NccE/qY4YVQSlMFmMm5kQq7xfktTgBiAuKhLGsmSxFM6YJX6NDnSmEj154/oVJ7ZfHxKby6SepbNY1KSdPYmKWLV4k7vRRPcDCwNJ9R4yJhuCu7iIZIms771cnidPx9jumIoJguOzaGgMsBmEXopTHTAhT+eKnKWA1Zk4n+V55VZ0lR96LE8Ddo/TlpTJ+lAzB4u7xJpTMlP+WNz7oC0hXa8Lp0j0yxOWkwJLX1IkxsMKlu2r2HHKqtZoutVshA/LISTJ1o1qpaFzP7vWHwHbRRGGtmY5ZEQWWszilBdd551Lh6ROTWr3r/OKAOtKAv+2874GYqxFM9uCcOdPSLYMAxFq1s197tfVzCFfH89fEP1++rdvUkRHajtapxHaSxf6db1u8X01arMfUGhanMEovm07BVk/CrXaRZKev1iEIDt8eLgfTd3Acf5y1Wwbao1z3KFxfO9fyOZC+4v/DQ+osfnxbtqq4pgENzZbJl5mkaPxXYo6Z32uV/2UNi1MUJdOmUuBQ9y2mzIgIpGO1adzYtJQqJMKmvU20aN1uunflx/SrP38U+sI1fI+JjX3oUHWUPFoOD+JCZoHiApkXl2hlQmDNahnDMQLxJsdEbMTR89gGD1ZHmYHFyQA9USwePD//hayrkhbTuDE9ltO0q76NrnpmE7l++Xc69Y+b6NrXP6db/nmI5r1fR/M2H5Zf1765h059eiu57lojxQr/hjGmoLxcHaVG0U03SGvGFGEBeRMsafIuFNaWLDQ3ojWuYHgmsFdWqKPM0KfECZNr+eYD0kLAxDxzwQY56XCttV21wuhBEJ9Cz3BkBzvOObvHhAnW0Ipt9TTrlMG07vvj5NeKy0fToguG012nDaCTK8UH2a/dvcvtQSovKqR5Wxpo9IMbafYLW+R1Jopis8mfGMXfuEAmKpqBFbeOx+K3rGFlaZPUaKp2agmnvRBv6gmyNgkTYvP+7iZav6uelnzSTOv3eYgcNjp5gJOuO3EgnTGymoZVl6if7h3qBw2lgPggopwi2zoPfNHkoYf+sZN+s+Ewlbvs6ipRc0CIVaGN3r1yXI+PX7qSMDMBgt31FRWmry2eREydgy4XFZq9RwGeC7lG8SzpWyZfivHq7a4XdeK9Wo1ZKomYWWU5wSKAVQSLqGb+Wpq85CO6Zc0h+sjTQQ9PGUZ1N0+gd647iWaeWtvrwoT2KxCm8sXPZ2VLlC9VuuiXXx9D264br65oQJjA6AUb8zYehRUkLHpALLG0j7ih59Xl4jvxJyNa4Zz1PZnnZk4ped96Wx1b41+1UrVI6R7HksW+PdQrLDRmwpLTxwzCieTSTNHrlhMmyAvvf0HzPqwX4y9eil3ppXBLZo2uop9MGt7rQhSNnsJfsXZ1nzCpYUUd/8iH6qyL5lY/fTb7RClkPUFPWk6YRL7Nm6njo4/J9vku6tyyTbjgG8R3tKVtfMow3bVH1dMIHQ5MSMRy6lb7F40QLvvEr8pE0lhoVphxLVsirykezMasE3Et8f1weQyNm9l7FKRqOfWKOMFle3b9frphzV4pQuXFXW0gmj1+KUo/mzyixyZNIqCuq33JS0m3+e0tEJeb9tp2GX/SkS6ePUgH53xVXcksmRYnPH/riy+Q757/owJ3XZfoOIu1H5DpHrokJUYiQgArA3Vspu9TIJ8vRsG5ZbGvcEODtUdadpKMBwhS6wsvkv/u36tYWdiY2cVnJdSiJbkx6zNuHQLaCMjCZbvh73uki1Hu7GoBCmF68T9G0X3fHJuVwgQw0D0pTOkK9J9/3CBxE+gaa4Dxb/YG6cWN4ibRh4EoNUybLoUPwoR8Ikxo9GSS1hBEKdQ1IvMfeQhY7K3EYvd46lizljpN8psggM7LLldniRMas7FjyHf3PbK8BmIaMWZSODFePSoTIXrkt2KCYXUNcY5ndzVTeamdyh3iV9vEXSxYIO/g+MJKEyZRPgLXa/Wn9TI3CSuQA+/5B13/NNyQ9HHPxCHU7IuKXQg3+p61iSWdZhNNN82VotT5wYfa5JIbT+gf63g+3vp4RI1LisTT48m/DHEuc9B+GEJriLAMi06foE4SA/FSOWYbNqYwZvpX5si4W4cJN/mZbcJMLJQuBMTICIjTrKMqpNWUi0B8DrV0kFtYhzsPt9Enh9poa72X3qzzSouRCpRV0ylcLZedVs4YTeOONI+BJAPie6c++a8INxog9oTFhtLirlW9TIC7tVtMCrOeRIm4dQjONp52JgW9XjW5TID7gxKKUFN+MxA/wY3R+POZaHwnvh5P+6nGY5xhHevf4/Uk2h8Kz+k+Y5LMyeupMcvamBMm5Ijfirt/ubCU1CqRFfoy928mDKZTh1ekfXJmAliFzV6fFJ49DV463NZBdc0eahDu0pb6ZlpV76PmNnGHgfgg4I9HBP31Y4F0r8R7p44APXzuULkamQnwWuFSw3INp7k9QOuuODbj450ucYIwoRc2cnxMi2HFcyGGYp94Ftm+fp5MVHRUVxO2NuoU/wYJhOHxnlhxokTFCcTT46li7TrDpF/Pq69R6/SrxOsxCDgjoD59WkI9yDBm9WLMCuMYs4Lxp1DhtItkMTHSHUzHLI70i6wVJ30ySKspDnHSka4HXpZPiFVZAZ1dXULHDiyiSkch1fYvJZfDThVO8SUsjAqng4rtiF1pg5bs3V+P7ehCAwvH7fWTx+enBiEuLV5NcA42tdAmN9FHbUKUYPEA3erRwXmY8IQjRQhAnPAecS7e7oxRFfTAtDEZt15ct6/uLk5CFF+cMjLjLnU6xAkT4vCQkZYN4jApioS7V/qD6+JuD5IJcWpZ+Ch5//tWUysFFozZHooN37mKOt9eHRYr6wIWV+nLz8hi9Xipx3ZmMsDds2OW1at1mPS/ffMTun+LW96h9YmbiFiB0KRWmc8STHCA59SPjcD3o38dfjzWv9HR0xsEupVj9fojBCj0Jc7F05xc7aTxA1w0sp+djh5USUOqnHRUTWnGRQlIS/b+9yKSMgH+LisuPYYmjkruQxQvEKdUV+sQY0KLXS0W092dwIQws0asyIQ4YSUMAWfT92uy4pbOhFAgt0T74yNKJNUHMQw8XzJdOvu8OIWDmMe6nW565/NGem6P8GXFHVuiBEsXhJjChUC6jkkMK1OEhAeEi488F69dWXpjhAjV9iuhwZVFUoAGlBX1+gqkjP89/1H3mJOwANdddVzWu3Uhd85iMriS3MQ0E+IE6kcfq46MP6dGExh5dNhhxjDLPIEcKRBP7Aq9zBKxwnRySpyigVW1o641Iki8091B25s6aH1ju+byhKNbQLYo8Qq3cgSxxC1CYHRCAiMe8c9xql9TlJdowjOo1CEtH7iYg8qd0r3MBvGJBbLvb3nvcLfxgTh5fp75yvZULaeWBQ+T99bbjN0kYW3E6qNtRabEqel/fyeX6k1dOwMXDRtQBl5+1dSlK1n0qOyeEQ+WriXGbNBA6r8mvmz1aHJanOIBrki7P0hur0+K2IFmL3l8nSROQ3Ggw94AuYUVhuv72rryglD2EmFZKYvrGFcRDS6xk8tRQBVFhdTfWUhVThuVOV2E0FX/kqJQTAuig3hWT7hdmWbg79Z2c0lxPmNIKT1+eeY7KaZqOR0+/Sy5gaZR3AST1vXYg7InVzJkSpyQSGm5O7RBcDtWvVoirwMbaWK/OkOhQ8xr/p2ydW8y5L04MelBZoi/8mn3eJMQ/BUzRmc83gRSFicxabFxo5GLhImQTKxJJ1PiBKzEBrGA4K4DoZQC1Kw1Tfo3U5eu4KTxVPXiYnUhNtqY6c8VGW8KQDxS2BEm0+LUswEbpte48o0d3YVJWE0I0PeEMKUKYiea3Wv+kU1XT6Z0g1UwCK8xeD+tMngOvEteoMKBQ+RxNEjqLP72t9VZbCAeYdFZQeTY4cwmxCtbYXHKAxBrkrlW0Qh3+PnLezbp1eBVxEWBzxfzw9rZbNHkrRdB5wCrHk9IZtQ7qgbuv8/QBdNoJdfXzlHHsYlnPIIpbPSZaVicchyskKJDppE7t2jK8B4P4mfuA1dK/k8/U8eJk0qv61jEWj1ESxT/hg2RLZ+jES4detMn4lYicdIaMWbKYkuGTI4Z6HPihAA5Ex9YDT31qX8Z5jXN/UoNTRt/pLqS/RTUVJNVCbRtcA15Fz6qzhIDKQrNUy8mbZvtzFBk1eNJWEr+FX+j9kWLKGjq0u2homuuUmfxgViPlaWKMfM9/Ig6Swy42XLMkHGeIfqEOCE/B90MXHdYV3EzkYx48N2IFikAwjTr6H70q28co670LMm6dSib0ILEJs8gvt+56nWZI5QIKBNB7pRcBczgdHB8Y4plITCEy/fKMhOXDu+5NKn8Lfv4U2TKgCFizNBmOtHt0PDzyJ0K7t1vuHKaLrJanOCSoDofHTEXbmmQq0rZnkuULaCbaHSCKlw5CFNvFlen8oGTWyBF76wcBlaNPBecH9fGlVg5bJg2nVqnX6qtNmVwkgHnxNPFf62KaAUmsaZgg5sct/9MnSVG4VQhii3mvxfvvfWiqdYupUIfM4/4eTlmprGx9JC14oQg7qmPbpYTTL/794VVpd4GrhyEaX1z5N0SnQfunzS017s+JGs5AWweEBDujRWYNMgrQplLtEjBfYOlhNyfrpYhmXPlwkGsCNvTm7p2VrjrqGzmt9RJYriEWKPxnhUYM2zHj+RPszGDKCENBGNmmgqSZrIyzwnNz2Yu26nFSvSeTz1U/5Up0GhvT4Mno68fwjTigcgeULKIusBG6741pte7PMTKc7IqhNWpG1RrWlcXgRABxGkABDH00xU1WlBZWkoR3yEkcpq1nU0lz0nHcrMCM8T7KDhrYkp7IdaPHqe5drGsQ7MxQ2sU9DGXllJiY5ZzSZihynm9hk65JxCoh8+pzVhLkVTRezahdcrHB5poe6Ofnv28SVvGx1tx2GQ3ynevOCHtfdFlr6Y/bRGfG/E7VN8sWEuzxlZlTY8sy7azgngylrVWIsoVSxdi4mKzS9TleS77jmGpRzrEKVZtoBH4vckU5Yaj9TRXrlhSqHkYcUPoJNuuHVQsxgz99LV2vuHf1157TomTWUM0HQgUat/mjqum4weX0UlDq6imrChj5SWwRtBGRS+hCe/ZBPE50OqjpQc8WhEzavw6tWZx0fV7smREtwKFaGAZP12rZdLS/Muu0JjBWiovIlo5fWxW9cRCsLpduBmm4oQ6s8WPk+vCKeqKMe7ZN1LHwkWJWSAm6I3XKpe/SvYRw6npW1eQf/U/usVT0iFOIFaPpwhSrH0LJ+1j5nRS5Rt/IfvRI03bu+ScOMH9weaP0T2HoglN/oCu6kQn9yuWNXMozAV6zZwZqMsD0bV5qMlDb+1Q4S+EBb9Pr0lD4XFYsXHMLgph6LVtCE4jO/vBC0elJCBYxVy4rUETRAi3vYAWTa7NyjSBlieeIu91c0wnSCJWgjbZHhLPZVzOEpMGrbGa49bbqPKWm9VF80LddIlTrB5P4eB3JtsxwIiUx0y5fch4D98OzWrMcs6tQw9tbKsdnZ8TDxEWiy4uyqIJPYYTJjIgEaFJBfk6YW21B2nWCf0Tdr0g4qc8sUmLKWEHGzFWC84ektW5SwhS+598xnQLpkQ/zHBX2q74rhQZuX9aFcpXLCadnFxYzm8lxw2zqezHc7o1VtPdxmhwCxyQBnHSezwhjmNNq8whqt6+TZ2nBzlmN/5YjjW20de2ObcYM7i8WO1Dz/JZ36OSOXOkhRmO7jYakXPiBFCoeuVfd0oLg4oS66SZjUgxQqM85fZdf0w/mjCsH5315eqEXVLZ+uQtVOfbaOqwMpp9+pA+sVBQP3K0dmDo0oixaWim6gOfq/P4wTJ4+5+XkW/xC3LSdVEqnrU1NPWQYV188TRZAmImMmj01vHeRnUWSSpxn3AwmTuLrN26gg6f1lo4yYkdi9CY/fHRUGmN7oOES1XBpPOo6LJvypVSs9eSqTHLWnHSQQLmcx8coIWfNGquFSwd9ZWtghXhcuJYiCs2b5h0VKWMkSUbDJfxuMc3S3FDn/VvHFfTZ/K+urpCmrgUwqpJtC+2EZgogT17KXDwIPnb2uS14uHDu93tmS6Q7R3cty+izq5w4MBeH7OsF6dw4Mps+LyBPtzXQit3t9D6+rCcEQhVCrGgZAiJECwi+QjxJJpaWyY7YcIyGl9bkbKAICj/8N93yOMZJ9f2yURUGWuZfbNFvCnxvthMbtOnxMkITFx009RX0dBNEwFurKIhuC2TEfV2wEZAwGKNQHScSlhCJ5c7Qr3A0RHzywPL+kQ3zN6iHg32LTKK4Y7F2gGXyS/6vDglAoQM6KkBAOkB8hGxrSjQCVM+hu3wkgsdMXsaBJk90y81zyxGk7krLk/ZpWNyi7wSJ6bn0XYSOUK5c3B/u8ebYDX127KV40JMBAaRSYZJH43XzJJbb3etBUXh0foUsTAx0bA4MRmj6a755FvyXFj+kYHVdHAPVcy/S50xTBcsTkxGkJtf3nar6sFk/DGDO+dc8FDcO8wy+UWfFScEtxet2x0KcjPZAToPoH5M7sprUWiK+iy4c8luS8TkPn1OnJDrdNUzm6hm/lpau7uZV8+yCBTNyk0zd++1rB2DMNnHjU2pDQiT+/QpcULNHYqC5VbmzkI64UvZuRVQvlL22/naB8oiVwnJloUTv0r9VryurjCMMX0mlQDW0nO7mmU/JL2/E/jwu8dnVeIj3Mz3dzfR+l31VFPuytreU5kCPZsaJ5zafVNIFJDu20WO2+8w3TSTYcLpE+KE+rrJz22j8hIhSmHCBNAmZO7x1XTuMTX0ldrKHnHzIEB1sqmcR26PvvtwK2082E7Lvmih5pZOIrsQULt4nYFO2cYl1bYofQ2t4+MMLeak2mzYJ55FZQ8+KPv/MEw89AlxemT1brrh73uo3BEpTOE0o0TFF5R9oI4psdPIyiKqKCqUPZ2A3tepzOkip/A6XFHPhV5OAAnjLV6P7PUU3edJlsLoxbw6qOWDEAlCtXyqqZwOmsvNGFVBd10wKm/KW2QawW23yjYbxTNnpq2in8kf+oQ4yWr8RzfHbECnE9HTKZzoGjkzwoqHdQyLiKNEyAq9fxP2i7tp8si8COSjD1Cq/Y+Y/KXPxJzCOz72ZWRzuNaAbDA367Qj88rdY5hEiO+2nwWgU+Rdpw2QLpKpZZTF4DXLNrodnTR1VDlNqC2XXQwYhjGmz1hOOshz+u2qnXKTTSoS2pqlTeekgMKNRK8newHNPa5/0p0vGSYf6XPipIMVs9e3HKDnNtXR0l0tXStkgp4Wq5AlpwfLhWDOGF5O547sR2eMrE77NlAMkw/0WXGKBukG2w600TufN2pJmnqDOQS39QC3ekxWvELWEMCj/CI6eYCTzqktC21VxWLEMKnTo+Kk5wdt2d9M+5o6aHdjG+10d9DwiqK0T2z8LnTIRBO5nYfbIvaZk9s/iS8ZA4pjBQ9BeD09Aa/1ywNKaHj/EhpS5WIhYpgMkVFxQgrAup1uzZrZ2UzkEWZGsXB5jqqQLs/xR1bQUTWlWRGDgZhFw7Ehhuk90ipOCFav2FZPj286SOsPeYUbJS4KPUJ+EnYLmTya4y+9AUp/Hpg2hsWW6VOkLE6wOJ5dv5/+a90eam7TVqZkbKcjIC2kn5w1lHN5ehlk2OOG8c51J6krDJP9JC1OXzR56M4Vn8nESIhROcpDVLY0Eg3XfTu79unPZ2Y8+QEt/bSZPL8+Q11hmOxHU5MEwZ14xH3v0cJPm2SwuLy4sEuY2gO07doTWJiyBLSZQarF3AkD1BWG6RskbDnJu/DeVk2QjLB10sE5X1UnTG8R2s690SdLZZBhzzB9iYTE6dd/2Uq/eb+ByotMhEkAy2nR14fRtPFHqitMT4Fcrzc+qqN5yJ5Hnlcn0cPnDc27nlJMbhC3OCHwjda48XQGaPb46eRqJ901eThNHFWtrjLpBH8PNLVD4ulftx/WsuThWWMxwh+kWWOr6DdTjuYVOqbPErc4IU1g9IKNhg3fjJDZ1Kgr6wzS1Noymjq6f1blNfUV9GRSbLf+8YGm7k3t9Ox3IMZ71ugq+tnkEbwtOtPnScitk/Gmfa2Wbp0REUWw4v+wvi4bVk4j+9np6EGVNKTKmZeihRVPbIuOjppur19mze9tbqEdDX5NgJCaEV5qU6jdFFB+Ez6msFKvO3EgXXTCEUmNIYLmV59WyzloTFaRcEAcH+R579XJjgBWnSljEVEsqyOuYfXv7BonjRETrrZfCVUJS21QuZMqxHW0GCl3OrJGxPSs8mavT4qMWzyiXAZC4/H5qUGIC7pqNvkC9MXhNqr32+lNYYE2t4v3rr9/AAGyRVpB4fV/obECGC9fUNbzXTVuYEqJrRDHS5/ZQuMqiB78FudAMdlFwuIEuiVeYlLZhVglWVAbTWgyysLasGP9+cXkJIdNbnZwjKsooiVvdDveaPQ2vNGgLS9Aa16gt+cFqMUDH3k6uoQFryVcNEC4iwVwrq5FjE0cHTQjrE0B3Onrj05f25V7V35Mt7x1kMqrCnl1lclKkhKncBCL2vB5A63a0UTP7mqWzeBCsRCjiZlGIiyKNGL0evG7yu3i98URb0uE0HtQIiQFSQjtjCGldObQfjR6UElaN25AisG05Z9JCwzi/tn1p+SdO830DVIWp2j0AO6He930yaE22lrvpaX727omHwQLcx9ujH4uyJSA9QbdRBOCg2HGZd0SFCBWNH6Aq0diby9u3EvXvSksXXRiEJxcVczlLExWk3ZxsgJWFuIyWHk63NZh3MYElle4caLESwoawKvVrwH9GJM+/HoyhD9HmIjIY1zWL4V/LxwhsOGuJtqrwM3E/nX9S4Tr6bTLNis1ZUU9Yq1gvB/7524t7wk3B7w38Xj/pKH03Ymc+8RkNz0qTvEC6ys6yAz0QDNiQeGxIwScOwNdinawqUUdxcfAyjL5WFCoWXeVDm01MnwbKZdDExMIDILzQA/Qg2xxjRDkXvlRHS147yCtF1YrXERJR0CmdNz7H0dzmgHTJ8hKcWISA32z/rbtAN3xQYNMgJWLE1hJtXXKBQuI0n+fM5zrHZk+BYtTHwRihJjeG9sb5RbtctVQWEh63E5uMCquISHzJ5OGc/4S0ydhccpiohcXVu5u0Zr4OYQIhSVkAl2QYCXNGFfDtY1MnycrxAlxkjU7DtOH+1pkALm2f6lMvETwuNiOXlHZk3iZbvDeD7V0yEUCva+6XOHc16pZRHqAXuWRhfKf8GdTFtPcsVW87RSTc2Sd5aT3HX99+wF69VNlJSjKywrobOGiVNv9MogNIUPQGlnkCFhHB6tBTwpbeMY4BAdAdPRscQgPkjw3HvLQ+mYfkUr4DBXs6l/hQIj0LwHSD7DTC8RofG0FB7eZnCXr3Tosh2O3lrW7GrvcmuhUA8xnvAt9Xke/I7+4oP8btdwPsOSvM7gktoDpmeIA2eJIyIzYwQWLfUhADf994YKDR/GzCFZH5ELh3+uWkELPgTrhS+UyEXPkgBIWIiav6JMxJ7hC2w+1yS2f9ERPWbOGSv1wUdAf9eMoQm5SghgljBomXgIMLw7DBUxYgyf3Kw7lQqGGcLA4ztcCaIYxIucC4noMRy/A1Sv961qDoXq5bvvWaelNGuFWWSyE6KF3OiwwWF7Ih9Jr/CA4SIEKT75E/IytH4aJj5wTp1TQY0ZmlBQEyeYwqCZmGCbNEP0/iowdBf2ZV7QAAAAASUVORK5CYII=;" parent="1" vertex="1">
          <mxGeometry x="203.18000000000006" y="705" width="53.64" height="30" as="geometry" />
        </mxCell>
        <mxCell id="K3JCWGEV4drO9uTMXzan-12" value="" style="shape=image;verticalLabelPosition=bottom;labelBackgroundColor=default;verticalAlign=top;aspect=fixed;imageAspect=0;image=data:image/png,iVBORw0KGgoAAAANSUhEUgAAAIoAAABPCAYAAAA0ol1jAAAAAXNSR0IArs4c6QAAAARnQU1BAACxjwv8YQUAAAAJcEhZcwAADsMAAA7DAcdvqGQAABEzSURBVHhe7Z0JcBRVGse/mZDAJCEJIRxigACWihwSDvEA5RIFZM2CIJcirhtQWECltJStrbK8oJZDUVfAY0FkA6xgFNFd1oAsZ7gWubKFQGW5wxFDArmT2f5/3S/p6XTP9CQzmczxq3p53a/fdL/u9+/3vvd194vFLkFeBLsvLy+n8PBwJSWEP+J1oYCKigoOviQiIkJZClEb6kUoDQEINSwsTFkL4S4BK5Tcgkq6UFBGeTfq7/Tioi3Upmk4xTe1KimBQ8AJBQKZn3Gd9p+TujvlzMIsctw03EJxkRY6e71STvACOGbftmE0c0AU3RoXON2dz4UiDm+xKLVZB45eKKEZG25S07BKCrPW3F9FpZ2aR8t3e16h904bxymUTLL3RzWlrm0aK6n+jaWkpMSnQgEQSV1HRWhJxqzMpUjJDNETCUAFArVYkGaU3x309pNXaqfVT8UERMsSMF3Pexn5tDGrlLsXIO5qCEcLKhRdkBCKJ8A+C8rsDkLFeu/EMJqf0ozX/ZmAEApGNCnLf+VlVBIqH63GmyNjqG1cI06vD9CqvZSeR9duVHd9EMsPqTF+PzwPCPP8eqF0N5er7mRpec7gqHoVCcBoB+IsqKi+rDBuT1z1/0Y7IIRys0IzirFYqZnUtbii9PDJKmPaDDCWXREVZqUw8t6oylcEhFBqS6OfMsne7mkq33pASdEHAnlmVS79mOVaKIFKUAsFWK9eobDhM6ls+Bwqz76kpMrA5ng1/Veasb7Aq74Xf8AaIIOeOmGhlhS+9Sg16vwM0asfUcn167RsVxGNWpFLxy9WUFyERXf0FExYy8rKqLS01KPBP8Vn45C+ZAXFtW5NS79YywIRBnKwY4WjC0M3TwXsD+LzN7Hsi7pJ3eJ/pmfjL5EtPoHs+/5M+94bQHln9is5ghurJ1znaoSXFWLxBy5QCaXGnaJHGmfReZLLnJSYSFcKrVSUn0eZi1LoaNp0Kvj1Im8LVrxizAqxoBtqyFzs0Y460R5alfeLkiKLJCf/BosEoHU5n/kNZb55D3WgE5wWjHht1NOQxYIywVh951//pi1bf6KZL75IRblXyRYT5yCSsNJiTk9NTeV8W75dVWXsBhu6QvGUjQGx4GWhhtQNbT5SRKM/y6d1B29S2udLadDAAdQqIYGF8EDPuyk3+yTng0B69OlDmzZtojs6d+F8y5cvJ1qykRq3fpLKPkn3U6O9dtQQCk7ekxcAQrFarT4Xi3CavfPTTV7Hw0O0INHR0fTWwsU0fdZsGjdmDAsD6avT1tDzqVNpzpw59PKLs7gLQhCjo/CZS0056wIFB6FAIKhQjF48aeQKsYjhsycDymulSh7K4okwh3BZ6NiGB4boZmZtKOC0pDgrPzBEvlYx0dS2421sl2SfO0cTx4+jdxcsoIPbMujzTz/h9eycK4pAtNjYWWcZ/jR3R4FOlVDUIvEGEIsYimtjvYBtZvNVSqeBp7R4bQABy0jDNhx36v02emNoNG/Dk12RD/YIBIIAIIgdW7fS2TNnKCMjw0AggiIp2Khy1RKyz3tBTgpgWCjeFolAtFLaWA9sM5NPIF57BBXSaaGVUdPv9ib0dWo8PXZ3FAupLtjpMpW9MopKLq2g8CcGmyqfv8OeWQTcfYEOKhSty98nx9MdrXTteKfAwC0b2IkqstZT+Bup1Dg2VtkS+FR5ZoPhrhDgvRG8dZZ+5Ra6vdz1QxwIpCiyLfV9KZ3Cv19AjZJaK1uCB/dvqwCil60V7clPpuXlHZQURyAQ+FLunPwxPTJnI8W1661sCT6CWiiCJ/KbU25ub5pd4dhSdHp0Bj3w1n+pffJIJSV4CQlFxZ+uN6cjcY9S69atacS7uyhh8GvKFvll7WCmypht6EH4TbwDhrpFVDn/Kepw7itKTEykr2Yn0+sP2VggdR0lBQLWRo0akT8E4RPxNBjq0syRVJ61gqwzJzocY2g3G63/XQyN7Bzh8MJ0MMKvGfhL8LRQKrq1orLMlUTzpzuMZPA8SIAR4ezBMbRqUkythtSBQlDfJhjqRnS/TVmTwXuy72wrqtHN4dOPQPiQq7aEjFkNX+y9IfVHlfTX/b6dz6WhERKKCrQm/FlqI6IfjhR69Cm6vxMSigpuTSTwQjU+MN/5S/B+x6MlIISCB4BiDhSg/VIPLYOrqcFgk6g/cker8mlmIS+HcCIUXFhcPD2fRkMLLSKrJ8lBaBtrpWNnZWFAJJWVrj/e0tokaFWy8yrpfJ57vpv92TVbodgA+ChIdzYDJKECvP3agSfB22t410SAD9VT7oqgu1q6fioe2dhCC7beZOea+jseONrgQ8HwWM2OE8VUqDOtzPHLZQ6tEoBwVzwVr6z5LzWE4o8iAai8P/7zBr/pJnDHo2o0AQ/2sfn5Zg4+HMzFkp5VrvsxulokeWUW9u7CcefvOHQ9QiT++G4KXkzC3GkwQgWoNLPB6ItAvBCVcdyx+xndS+rrpCG03n4EEFjfREtAiARUCUUtEnhB/RE4xNDdQCyoKHQldQ0wav92qNpTC+B8gyiNjoHjo8ua93ic8gv/p6rrgeGqFok/z8t6Nq+cvj9eRrtPOVZwbcH7tW+NjHaYuA9dnd6o6L5ONnogyRowk/wJWChqkWAZAnE1nKwL2L+/ijBY4VkhtSJBQEPjrS5I23qFaPhYysvL7eoWpL7u9IYqFqUnDolYg9UXIgEYfsN4FhXTUIBzDuUK4YjVFyIRoEVpSGLBtYBQUK4QjvDw2BciAWjehVh8DcQKoYRsJ30axITEKALE4itvsK+P7w80iKfHuIPRqsHArW+ESELdjXN8JhRUkFoYEIovxCJEEupunOOzrsdoeAw7QRjY9UFIJObwiVBwF+MTjFAF+Q+mhaJ3l2NyHIGZl4MA8tVVJChySGT1C3tmleUqtMNltAAQBYKoIFRWaX4+5ZWUULO4uKoRgxnd1aWSRdcU6jJqh7h+wiY0CzvctAHCQBDLovJRMfv376dnp02jxLu68wzPSe3bU2xsC+rfvz/9Zelyzo98aDmMAhg7cRLd2rkb5Vy+7FRc2G6z2fiYQJwgjuOM+FvbcnDHOH719de5TD373ieHnj05PDx8OC1atIhOnz6t5DQG1wDl3ZD+jZJSkzVr1nDZsF89Zs2axfvA8VAHRmAbl1cqoytwTJwT5qyLjY3lGGVAPTgrq4DnR9EG8RknKhWtiGgtUFkQRNrKlTz/GabVxNSbI0eNpGOns3lSPBTi6NGjXJmiFdIGcPLkqaoZGM20DDcK5DfkgRCLkQi2bNkiz2kihR07diip5uAylSnvvYY35oDpuubOnUtdunRhMdUFVMqUKVMoqVUL2pSerqQ6UiC10gJxvYxAebOyspS1muAmhCBxzKzDh6S6Gq3U2Wie1HDjhvX01rvzlNxOkHakiyQSvH6grNntU6ZOtTdp0sSefM+99lOnTimp1aAL++jjZZwHQS+PGuwH+S7l5Cgp+mA78o2ZMFFJqQbHVJdRgLzJycn2Nnd2tQ8ZNkxJdc0rr73Gx9q3b5+SIoNrkZGRYU9ISODtWDZCXIP1X6crKdXs2r2HtzVrk2jHU3sjxLV2dQ1x/sjXpEmMklKTtLQ0zjNixAjdY549e9Z+5MgRZc0YXblK6dy0o3UBuEPRioA927dRx44deVkN7vAXpqXSwsXv8/rUGTM49iai1VJ3Q+fOneO7ZNKkSfTy76dwa4C0uoAWb9CgQbR27VpeX/rZ5xy7A1pZzFULsv5zwKkXuGljz730tGHjdxzPmzdP95iYuaFr167KmjE1hCJEot4p+meAOVidnSCAWDp378EVhIvjbSAWIPrydevWcfzggw/S0KFDeVmk1ZWkpCSO0W0CXCt1MAK2Rp8+fXj52LFj1Kplyxq/FQGoux5PERkZqSzVDgehoKBakcAOwFSaoF+/fhy7YtKTYzjevHkzx94GLR/sKZR17tw3KD7pNurduzffKRAt7Athz2grRgTzRFDz5vLH6jimOuiB1qz/iMd5GSJBawxRa38rgqe5t5ds6KYb2ENmcRj1qLsbweHDhznuN3Cgy9ZE0KNHD473HDjIcX2AcsuGqySWWX+QEyWek4w4gG0QhNSv64ZqjM9x79690t9SGjZkCK8Lo1oELRBn34eHscG5ffv2qi5b+zt18DRjx47lGDcLDHGMImuD1MVXj0ZwsbUjkPz8fI7btmvHsRlaSk0r2HnwZ47rC2E7/Oax6mHn6FEpHGNGapwbzlEvVFNzJIWLi+ElRg6YpHiiZP+4orS4iEakpLBIMMJAC+cLYINIxrm0FEFLFi9mdwaG37A73aHGRDpa8vLlqcHdMbDq2h/WBmHEolJwcQSwB5DmjlE79PHfUosWLTjYbLHUObkXiwT7gSGKfbpiypSpdODnI9z1oVwQmq9AF3z9+hUeaKBbxj9/kEZB7FcxKxjDQbrot+NimnJ88eo1jtX9ughaCgvlzxjga6kvvv3ue45vSWjOvgp16NBebg3NGrVDBjxEEyZM4DB+8ngqys3nrnfd6i9NiQTEJ7Wjw5m76au01bwOoZlx2HkLmA0YaJzPOsLd4PjJk9mvAsHASegSjK3VAX4JsSz13TyWx7gf/gisq/OKoP6NZJCxDwFje/glgDYvwP6QB34So/0iHeN85INvwQgcE2WUfQrOA/ZphPCjaP0Kcln1fSNa9Pwowpfhyn8iMOtHwXkjnzM/ijOEXwfBlT/LCqWpA2wVGFVYRgwDjD2cUtN99do1h7wioI8Xy+i+MvdmShIspeTu3VmM2ryguABdmmwPiONpA9Ll0Uqpg2dWy57MvVxGeIpxt/A/YVIFcQeBbdu2ceyM4uJijsWQe9mHH3L83PQZVaMndxg3bhyXDWWcNnOmkmpMi3hzH7UL/5Et3vEjerPcd29fLhfYuWs3x0Y4dD1i2Ka1vuHyBau//JJjZ+BCwmgCAwcN4liP+/v35/iYC19LdnY2x2KYp8fiDz7gGEYajEZcAHVA2kuKAxBGrSvKyiu4SxXXATeL+C9hHyqicRf4omCvwHHpyl5p307218ijLGNOnJD/dR26ytrSXjJuTSE3LHIzZtQsys2/3EShuXIG3OfIJ7odI+AGRz5XLnbh6te61QXCxd+vXz8lxRhXjw2MXPgA1wbbEJy5vJ258NGViH0461ZEPrOufjNdohGiW3XlxmehOBOJQLY75JNcuHAhnwx+gz4fFx4CQmVhu7BnXCFEhecQKKjYH2JUltifM9GhLMhj5mIJWwG/0cOZUIC4Bs7E7UwoQOxDaqV0n1MJRFnwzArXVm3L4Vqpr50RyAsx4abEza6+vqg/ITRXNytAV8M/NAMO6MpoxAmaEQkQJ6K3HxGMKlWUG+URdx4uPGK9ILZhn3hYqE5DAKJynLWaQrwQnR6uhALEcfQedKoR+YwCrp0oux44P73fqQPK4GwfAv72GIajWaTf0FbJsD106BDlXL1KV3Jzqx4Y4lkQHp65C54Jwd2P/RXfvElNoqK4n4bjTO0TEaAMkhgpJyeHh7xt2rRhg9EMsA8uXLjAHkvtvuFTwHmlpKToPvgEGOLCHd4kMpqHm1p278mk3bt28nMmo4dtKP/Hyz6h4sIbuuVQI44nrjUMXfyzTGf7V4Pf/2Pzj/S/M7KtJ64v9oHnYWYdgRbcmcqyKfSccmqvJXwHOHFcDIAK9eT7sdiveNTgqX2GcI1VEorDQylXQf1sSATczW+//TaPCvBsAx5QVCJEIgTjCUIi8R0efQsfw1P+38AS4kmpJ5H63HoVifBTmEVcSne6cn/Bo0JB6yIcWrbIKPZheIr6FgmOBz8KHJDugFZX64cKBHz2AZg74M4WHuP6QIgkECu8trh3u/iA+hYJjhcSiRai/wNqx3RoZ6kmVwAAAABJRU5ErkJggg==;" parent="1" vertex="1">
          <mxGeometry x="204.41999999999996" y="575" width="52.4" height="30" as="geometry" />
        </mxCell>
      </root>
    </mxGraphModel>
  </diagram>
</mxfile>
